%TF.GenerationSoftware,KiCad,Pcbnew,5.1.6-c6e7f7d~86~ubuntu18.04.1*%
%TF.CreationDate,2020-07-28T03:29:11+01:00*%
%TF.ProjectId,cortex-debug,636f7274-6578-42d6-9465-6275672e6b69,rev?*%
%TF.SameCoordinates,Original*%
%TF.FileFunction,Copper,L1,Top*%
%TF.FilePolarity,Positive*%
%FSLAX46Y46*%
G04 Gerber Fmt 4.6, Leading zero omitted, Abs format (unit mm)*
G04 Created by KiCad (PCBNEW 5.1.6-c6e7f7d~86~ubuntu18.04.1) date 2020-07-28 03:29:11*
%MOMM*%
%LPD*%
G01*
G04 APERTURE LIST*
%TA.AperFunction,SMDPad,CuDef*%
%ADD10R,2.790000X0.740000*%
%TD*%
%TA.AperFunction,ComponentPad*%
%ADD11C,1.900000*%
%TD*%
%TA.AperFunction,ViaPad*%
%ADD12C,0.800000*%
%TD*%
%TA.AperFunction,Conductor*%
%ADD13C,0.400000*%
%TD*%
%TA.AperFunction,Conductor*%
%ADD14C,0.200000*%
%TD*%
G04 APERTURE END LIST*
D10*
%TO.P,P2,10*%
%TO.N,/~RESET*%
X117965000Y-61460000D03*
%TO.P,P2,9*%
%TO.N,GND*%
X122035000Y-61460000D03*
%TO.P,P2,8*%
%TO.N,/JTDI*%
X117965000Y-62730000D03*
%TO.P,P2,7*%
%TO.N,N/C*%
X122035000Y-62730000D03*
%TO.P,P2,6*%
%TO.N,/SWO*%
X117965000Y-64000000D03*
%TO.P,P2,5*%
%TO.N,GND*%
X122035000Y-64000000D03*
%TO.P,P2,4*%
%TO.N,/SWCLK*%
X117965000Y-65270000D03*
%TO.P,P2,3*%
%TO.N,GND*%
X122035000Y-65270000D03*
%TO.P,P2,2*%
%TO.N,/SWDIO*%
X117965000Y-66540000D03*
%TO.P,P2,1*%
%TO.N,3v3*%
X122035000Y-66540000D03*
%TD*%
%TO.P,P1,10*%
%TO.N,/~RESET*%
X117965000Y-73460000D03*
%TO.P,P1,9*%
%TO.N,GND*%
X122035000Y-73460000D03*
%TO.P,P1,8*%
%TO.N,/JTDI*%
X117965000Y-74730000D03*
%TO.P,P1,7*%
%TO.N,N/C*%
X122035000Y-74730000D03*
%TO.P,P1,6*%
%TO.N,/SWO*%
X117965000Y-76000000D03*
%TO.P,P1,5*%
%TO.N,GND*%
X122035000Y-76000000D03*
%TO.P,P1,4*%
%TO.N,/SWCLK*%
X117965000Y-77270000D03*
%TO.P,P1,3*%
%TO.N,GND*%
X122035000Y-77270000D03*
%TO.P,P1,2*%
%TO.N,/SWDIO*%
X117965000Y-78540000D03*
%TO.P,P1,1*%
%TO.N,3v3*%
X122035000Y-78540000D03*
%TD*%
D11*
%TO.P,J6,8*%
%TO.N,/~RESET*%
X110490000Y-66929000D03*
%TO.P,J6,7*%
%TO.N,GND*%
X107950000Y-66929000D03*
%TO.P,J6,6*%
%TO.N,/CH5*%
X110490000Y-64389000D03*
%TO.P,J6,5*%
%TO.N,GND*%
X107950000Y-64389000D03*
%TO.P,J6,4*%
%TO.N,/CH6*%
X110490000Y-61849000D03*
%TO.P,J6,3*%
%TO.N,GND*%
X107950000Y-61849000D03*
%TO.P,J6,2*%
%TO.N,/CH7*%
X110490000Y-59309000D03*
%TO.P,J6,1*%
%TO.N,GND*%
X107950000Y-59309000D03*
%TD*%
%TO.P,J5,1*%
%TO.N,GND*%
X100330000Y-59309000D03*
%TO.P,J5,2*%
%TO.N,/CH7*%
X102870000Y-59309000D03*
%TO.P,J5,3*%
%TO.N,GND*%
X100330000Y-61849000D03*
%TO.P,J5,4*%
%TO.N,/CH6*%
X102870000Y-61849000D03*
%TO.P,J5,5*%
%TO.N,GND*%
X100330000Y-64389000D03*
%TO.P,J5,6*%
%TO.N,/CH5*%
X102870000Y-64389000D03*
%TO.P,J5,7*%
%TO.N,GND*%
X100330000Y-66929000D03*
%TO.P,J5,8*%
%TO.N,/~RESET*%
X102870000Y-66929000D03*
%TD*%
%TO.P,J2,8*%
%TO.N,/SWDIO*%
X110490000Y-80391000D03*
%TO.P,J2,7*%
%TO.N,GND*%
X107950000Y-80391000D03*
%TO.P,J2,6*%
%TO.N,/SWCLK*%
X110490000Y-77851000D03*
%TO.P,J2,5*%
%TO.N,GND*%
X107950000Y-77851000D03*
%TO.P,J2,4*%
%TO.N,/SWO*%
X110490000Y-75311000D03*
%TO.P,J2,3*%
%TO.N,GND*%
X107950000Y-75311000D03*
%TO.P,J2,2*%
%TO.N,/JTDI*%
X110490000Y-72771000D03*
%TO.P,J2,1*%
%TO.N,GND*%
X107950000Y-72771000D03*
%TD*%
%TO.P,J1,8*%
%TO.N,/SWDIO*%
X102870000Y-80391000D03*
%TO.P,J1,7*%
%TO.N,GND*%
X100330000Y-80391000D03*
%TO.P,J1,6*%
%TO.N,/SWCLK*%
X102870000Y-77851000D03*
%TO.P,J1,5*%
%TO.N,GND*%
X100330000Y-77851000D03*
%TO.P,J1,4*%
%TO.N,/SWO*%
X102870000Y-75311000D03*
%TO.P,J1,3*%
%TO.N,GND*%
X100330000Y-75311000D03*
%TO.P,J1,2*%
%TO.N,/JTDI*%
X102870000Y-72771000D03*
%TO.P,J1,1*%
%TO.N,GND*%
X100330000Y-72771000D03*
%TD*%
D12*
%TO.N,GND*%
X124300000Y-77300000D03*
X124300000Y-76000000D03*
X124300000Y-73500000D03*
X124300000Y-65300000D03*
X124300000Y-64000000D03*
X124300000Y-61500000D03*
%TO.N,/SWDIO*%
X116000000Y-72200000D03*
%TO.N,/SWCLK*%
X114700000Y-72200000D03*
%TO.N,/SWO*%
X113800000Y-71300000D03*
%TO.N,/JTDI*%
X112900000Y-70400000D03*
%TD*%
D13*
%TO.N,GND*%
X122035000Y-77270000D02*
X124270000Y-77270000D01*
X124270000Y-77270000D02*
X124300000Y-77300000D01*
X122035000Y-76000000D02*
X124300000Y-76000000D01*
X122035000Y-73460000D02*
X124260000Y-73460000D01*
X124260000Y-73460000D02*
X124300000Y-73500000D01*
X122035000Y-65270000D02*
X124270000Y-65270000D01*
X124270000Y-65270000D02*
X124300000Y-65300000D01*
X122035000Y-64000000D02*
X124300000Y-64000000D01*
X122035000Y-61460000D02*
X124260000Y-61460000D01*
X124260000Y-61460000D02*
X124300000Y-61500000D01*
D14*
%TO.N,/JTDI*%
X109239999Y-71520999D02*
X110490000Y-72771000D01*
X102870000Y-72771000D02*
X104120001Y-71520999D01*
X104120001Y-71520999D02*
X109239999Y-71520999D01*
%TO.N,/SWO*%
X109239999Y-74060999D02*
X110490000Y-75311000D01*
X102870000Y-75311000D02*
X104120001Y-74060999D01*
X104120001Y-74060999D02*
X109239999Y-74060999D01*
%TO.N,/SWCLK*%
X109200001Y-76561001D02*
X110490000Y-77851000D01*
X102870000Y-77851000D02*
X104159999Y-76561001D01*
X104159999Y-76561001D02*
X109200001Y-76561001D01*
%TO.N,/SWDIO*%
X109200001Y-79101001D02*
X110490000Y-80391000D01*
X102870000Y-80391000D02*
X104159999Y-79101001D01*
X104159999Y-79101001D02*
X109200001Y-79101001D01*
D13*
X112341000Y-78540000D02*
X110490000Y-80391000D01*
X117965000Y-78540000D02*
X112341000Y-78540000D01*
X116000000Y-72200000D02*
X116000000Y-67000000D01*
X116460000Y-66540000D02*
X117965000Y-66540000D01*
X116000000Y-67000000D02*
X116460000Y-66540000D01*
%TO.N,/SWCLK*%
X111071000Y-77270000D02*
X110490000Y-77851000D01*
X117965000Y-77270000D02*
X111071000Y-77270000D01*
X114700000Y-72200000D02*
X114700000Y-66500000D01*
X115930000Y-65270000D02*
X117965000Y-65270000D01*
X114700000Y-66500000D02*
X115930000Y-65270000D01*
%TO.N,/SWO*%
X111179000Y-76000000D02*
X110490000Y-75311000D01*
X117965000Y-76000000D02*
X111179000Y-76000000D01*
X117965000Y-76000000D02*
X119700000Y-76000000D01*
X119700000Y-76000000D02*
X120000000Y-75700000D01*
X120000000Y-75700000D02*
X120000000Y-64200000D01*
X119800000Y-64000000D02*
X117965000Y-64000000D01*
X120000000Y-64200000D02*
X119800000Y-64000000D01*
X113800000Y-71300000D02*
X113800000Y-65600000D01*
X115400000Y-64000000D02*
X117965000Y-64000000D01*
X113800000Y-65600000D02*
X115400000Y-64000000D01*
%TO.N,/JTDI*%
X117965000Y-74730000D02*
X111907002Y-74730000D01*
X110490000Y-73312998D02*
X110490000Y-72771000D01*
X111907002Y-74730000D02*
X110490000Y-73312998D01*
X112900000Y-70400000D02*
X112900000Y-64500000D01*
X114670000Y-62730000D02*
X117965000Y-62730000D01*
X112900000Y-64500000D02*
X114670000Y-62730000D01*
D14*
%TO.N,/CH7*%
X109239999Y-60559001D02*
X110490000Y-59309000D01*
X102870000Y-59309000D02*
X104120001Y-60559001D01*
X104120001Y-60559001D02*
X109239999Y-60559001D01*
%TO.N,/CH6*%
X109239999Y-63099001D02*
X110490000Y-61849000D01*
X102870000Y-61849000D02*
X104120001Y-63099001D01*
X104120001Y-63099001D02*
X109239999Y-63099001D01*
%TO.N,/CH5*%
X109239999Y-65639001D02*
X110490000Y-64389000D01*
X102870000Y-64389000D02*
X104120001Y-65639001D01*
X104120001Y-65639001D02*
X109239999Y-65639001D01*
D13*
%TO.N,/~RESET*%
X117965000Y-73460000D02*
X114560000Y-73460000D01*
X114560000Y-73460000D02*
X110490000Y-69390000D01*
D14*
X110459001Y-68179001D02*
X110490000Y-68210000D01*
X104120001Y-68179001D02*
X110459001Y-68179001D01*
D13*
X110490000Y-69390000D02*
X110490000Y-68210000D01*
D14*
X102870000Y-66929000D02*
X104120001Y-68179001D01*
D13*
X110490000Y-68210000D02*
X110490000Y-66929000D01*
X111871000Y-66929000D02*
X110490000Y-66929000D01*
X112200000Y-66600000D02*
X111871000Y-66929000D01*
X112200000Y-62900000D02*
X112200000Y-66600000D01*
X117965000Y-61460000D02*
X113640000Y-61460000D01*
X113640000Y-61460000D02*
X112200000Y-62900000D01*
%TO.N,3v3*%
X122035000Y-78540000D02*
X124860000Y-78540000D01*
X124860000Y-78540000D02*
X125400000Y-78000000D01*
X125400000Y-78000000D02*
X125400000Y-67300000D01*
X124640000Y-66540000D02*
X122035000Y-66540000D01*
X125400000Y-67300000D02*
X124640000Y-66540000D01*
%TD*%
M02*
