%TF.GenerationSoftware,KiCad,Pcbnew,5.1.6-c6e7f7d~86~ubuntu18.04.1*%
%TF.CreationDate,2020-07-28T03:29:11+01:00*%
%TF.ProjectId,cortex-debug,636f7274-6578-42d6-9465-6275672e6b69,rev?*%
%TF.SameCoordinates,Original*%
%TF.FileFunction,Copper,L2,Bot*%
%TF.FilePolarity,Positive*%
%FSLAX46Y46*%
G04 Gerber Fmt 4.6, Leading zero omitted, Abs format (unit mm)*
G04 Created by KiCad (PCBNEW 5.1.6-c6e7f7d~86~ubuntu18.04.1) date 2020-07-28 03:29:11*
%MOMM*%
%LPD*%
G01*
G04 APERTURE LIST*
%TA.AperFunction,ComponentPad*%
%ADD10C,1.900000*%
%TD*%
%TA.AperFunction,ViaPad*%
%ADD11C,0.800000*%
%TD*%
%TA.AperFunction,Conductor*%
%ADD12C,0.200000*%
%TD*%
%TA.AperFunction,Conductor*%
%ADD13C,0.400000*%
%TD*%
%TA.AperFunction,Conductor*%
%ADD14C,0.300000*%
%TD*%
G04 APERTURE END LIST*
D10*
%TO.P,J6,8*%
%TO.N,/~RESET*%
X110490000Y-66929000D03*
%TO.P,J6,7*%
%TO.N,GND*%
X107950000Y-66929000D03*
%TO.P,J6,6*%
%TO.N,/CH5*%
X110490000Y-64389000D03*
%TO.P,J6,5*%
%TO.N,GND*%
X107950000Y-64389000D03*
%TO.P,J6,4*%
%TO.N,/CH6*%
X110490000Y-61849000D03*
%TO.P,J6,3*%
%TO.N,GND*%
X107950000Y-61849000D03*
%TO.P,J6,2*%
%TO.N,/CH7*%
X110490000Y-59309000D03*
%TO.P,J6,1*%
%TO.N,GND*%
X107950000Y-59309000D03*
%TD*%
%TO.P,J5,1*%
%TO.N,GND*%
X100330000Y-59309000D03*
%TO.P,J5,2*%
%TO.N,/CH7*%
X102870000Y-59309000D03*
%TO.P,J5,3*%
%TO.N,GND*%
X100330000Y-61849000D03*
%TO.P,J5,4*%
%TO.N,/CH6*%
X102870000Y-61849000D03*
%TO.P,J5,5*%
%TO.N,GND*%
X100330000Y-64389000D03*
%TO.P,J5,6*%
%TO.N,/CH5*%
X102870000Y-64389000D03*
%TO.P,J5,7*%
%TO.N,GND*%
X100330000Y-66929000D03*
%TO.P,J5,8*%
%TO.N,/~RESET*%
X102870000Y-66929000D03*
%TD*%
%TO.P,J2,8*%
%TO.N,/SWDIO*%
X110490000Y-80391000D03*
%TO.P,J2,7*%
%TO.N,GND*%
X107950000Y-80391000D03*
%TO.P,J2,6*%
%TO.N,/SWCLK*%
X110490000Y-77851000D03*
%TO.P,J2,5*%
%TO.N,GND*%
X107950000Y-77851000D03*
%TO.P,J2,4*%
%TO.N,/SWO*%
X110490000Y-75311000D03*
%TO.P,J2,3*%
%TO.N,GND*%
X107950000Y-75311000D03*
%TO.P,J2,2*%
%TO.N,/JTDI*%
X110490000Y-72771000D03*
%TO.P,J2,1*%
%TO.N,GND*%
X107950000Y-72771000D03*
%TD*%
%TO.P,J1,8*%
%TO.N,/SWDIO*%
X102870000Y-80391000D03*
%TO.P,J1,7*%
%TO.N,GND*%
X100330000Y-80391000D03*
%TO.P,J1,6*%
%TO.N,/SWCLK*%
X102870000Y-77851000D03*
%TO.P,J1,5*%
%TO.N,GND*%
X100330000Y-77851000D03*
%TO.P,J1,4*%
%TO.N,/SWO*%
X102870000Y-75311000D03*
%TO.P,J1,3*%
%TO.N,GND*%
X100330000Y-75311000D03*
%TO.P,J1,2*%
%TO.N,/JTDI*%
X102870000Y-72771000D03*
%TO.P,J1,1*%
%TO.N,GND*%
X100330000Y-72771000D03*
%TD*%
D11*
%TO.N,GND*%
X124300000Y-77300000D03*
X124300000Y-76000000D03*
X124300000Y-73500000D03*
X124300000Y-65300000D03*
X124300000Y-64000000D03*
X124300000Y-61500000D03*
%TO.N,/SWDIO*%
X116000000Y-72200000D03*
%TO.N,/SWCLK*%
X114700000Y-72200000D03*
%TO.N,/SWO*%
X113800000Y-71300000D03*
%TO.N,/JTDI*%
X112900000Y-70400000D03*
%TD*%
D12*
%TO.N,GND*%
X109200001Y-81641001D02*
X111558999Y-81641001D01*
X107950000Y-80391000D02*
X109200001Y-81641001D01*
X111558999Y-81641001D02*
X112100000Y-81100000D01*
D13*
%TO.N,/SWDIO*%
X110490000Y-80391000D02*
X116000000Y-74881000D01*
X116000000Y-74881000D02*
X116000000Y-72200000D01*
%TO.N,/SWCLK*%
X110490000Y-77851000D02*
X114700000Y-73641000D01*
X114700000Y-73641000D02*
X114700000Y-72200000D01*
%TO.N,/SWO*%
X110490000Y-75311000D02*
X113800000Y-72001000D01*
X113800000Y-72001000D02*
X113800000Y-71300000D01*
%TO.N,/JTDI*%
X110490000Y-72771000D02*
X110529000Y-72771000D01*
X110529000Y-72771000D02*
X112900000Y-70400000D01*
%TD*%
D14*
%TO.N,GND*%
G36*
X101540717Y-58598483D02*
G01*
X101427644Y-58871466D01*
X101370000Y-59161263D01*
X101370000Y-59456737D01*
X101427644Y-59746534D01*
X101540717Y-60019517D01*
X101704874Y-60265194D01*
X101913806Y-60474126D01*
X102070760Y-60579000D01*
X101913806Y-60683874D01*
X101704874Y-60892806D01*
X101540717Y-61138483D01*
X101427644Y-61411466D01*
X101370000Y-61701263D01*
X101370000Y-61996737D01*
X101427644Y-62286534D01*
X101540717Y-62559517D01*
X101704874Y-62805194D01*
X101913806Y-63014126D01*
X102070760Y-63119000D01*
X101913806Y-63223874D01*
X101704874Y-63432806D01*
X101540717Y-63678483D01*
X101427644Y-63951466D01*
X101370000Y-64241263D01*
X101370000Y-64536737D01*
X101427644Y-64826534D01*
X101540717Y-65099517D01*
X101704874Y-65345194D01*
X101913806Y-65554126D01*
X102070760Y-65659000D01*
X101913806Y-65763874D01*
X101704874Y-65972806D01*
X101540717Y-66218483D01*
X101427644Y-66491466D01*
X101370000Y-66781263D01*
X101370000Y-67076737D01*
X101427644Y-67366534D01*
X101540717Y-67639517D01*
X101704874Y-67885194D01*
X101913806Y-68094126D01*
X102159483Y-68258283D01*
X102432466Y-68371356D01*
X102722263Y-68429000D01*
X103017737Y-68429000D01*
X103307534Y-68371356D01*
X103580517Y-68258283D01*
X103826194Y-68094126D01*
X104035126Y-67885194D01*
X104199283Y-67639517D01*
X104312356Y-67366534D01*
X104370000Y-67076737D01*
X104370000Y-66781263D01*
X104312356Y-66491466D01*
X104199283Y-66218483D01*
X104035126Y-65972806D01*
X103826194Y-65763874D01*
X103669240Y-65659000D01*
X103826194Y-65554126D01*
X104035126Y-65345194D01*
X104199283Y-65099517D01*
X104312356Y-64826534D01*
X104370000Y-64536737D01*
X104370000Y-64241263D01*
X104312356Y-63951466D01*
X104199283Y-63678483D01*
X104035126Y-63432806D01*
X103826194Y-63223874D01*
X103669240Y-63119000D01*
X103826194Y-63014126D01*
X104035126Y-62805194D01*
X104199283Y-62559517D01*
X104312356Y-62286534D01*
X104370000Y-61996737D01*
X104370000Y-61701263D01*
X104312356Y-61411466D01*
X104199283Y-61138483D01*
X104035126Y-60892806D01*
X103826194Y-60683874D01*
X103669240Y-60579000D01*
X103826194Y-60474126D01*
X104035126Y-60265194D01*
X104199283Y-60019517D01*
X104312356Y-59746534D01*
X104370000Y-59456737D01*
X104370000Y-59161263D01*
X104312356Y-58871466D01*
X104199283Y-58598483D01*
X104183592Y-58575000D01*
X109176408Y-58575000D01*
X109160717Y-58598483D01*
X109047644Y-58871466D01*
X108990000Y-59161263D01*
X108990000Y-59456737D01*
X109047644Y-59746534D01*
X109160717Y-60019517D01*
X109324874Y-60265194D01*
X109533806Y-60474126D01*
X109690760Y-60579000D01*
X109533806Y-60683874D01*
X109324874Y-60892806D01*
X109160717Y-61138483D01*
X109047644Y-61411466D01*
X108990000Y-61701263D01*
X108990000Y-61996737D01*
X109047644Y-62286534D01*
X109160717Y-62559517D01*
X109324874Y-62805194D01*
X109533806Y-63014126D01*
X109690760Y-63119000D01*
X109533806Y-63223874D01*
X109324874Y-63432806D01*
X109160717Y-63678483D01*
X109047644Y-63951466D01*
X108990000Y-64241263D01*
X108990000Y-64536737D01*
X109047644Y-64826534D01*
X109160717Y-65099517D01*
X109324874Y-65345194D01*
X109533806Y-65554126D01*
X109690760Y-65659000D01*
X109533806Y-65763874D01*
X109324874Y-65972806D01*
X109160717Y-66218483D01*
X109047644Y-66491466D01*
X108990000Y-66781263D01*
X108990000Y-67076737D01*
X109047644Y-67366534D01*
X109160717Y-67639517D01*
X109324874Y-67885194D01*
X109533806Y-68094126D01*
X109779483Y-68258283D01*
X110052466Y-68371356D01*
X110342263Y-68429000D01*
X110637737Y-68429000D01*
X110927534Y-68371356D01*
X111200517Y-68258283D01*
X111446194Y-68094126D01*
X111655126Y-67885194D01*
X111819283Y-67639517D01*
X111932356Y-67366534D01*
X111990000Y-67076737D01*
X111990000Y-66781263D01*
X111932356Y-66491466D01*
X111819283Y-66218483D01*
X111655126Y-65972806D01*
X111446194Y-65763874D01*
X111289240Y-65659000D01*
X111446194Y-65554126D01*
X111655126Y-65345194D01*
X111819283Y-65099517D01*
X111932356Y-64826534D01*
X111990000Y-64536737D01*
X111990000Y-64241263D01*
X111932356Y-63951466D01*
X111819283Y-63678483D01*
X111655126Y-63432806D01*
X111446194Y-63223874D01*
X111289240Y-63119000D01*
X111446194Y-63014126D01*
X111655126Y-62805194D01*
X111819283Y-62559517D01*
X111932356Y-62286534D01*
X111990000Y-61996737D01*
X111990000Y-61701263D01*
X111932356Y-61411466D01*
X111819283Y-61138483D01*
X111655126Y-60892806D01*
X111446194Y-60683874D01*
X111289240Y-60579000D01*
X111446194Y-60474126D01*
X111655126Y-60265194D01*
X111819283Y-60019517D01*
X111932356Y-59746534D01*
X111990000Y-59456737D01*
X111990000Y-59161263D01*
X111932356Y-58871466D01*
X111819283Y-58598483D01*
X111803592Y-58575000D01*
X124731178Y-58575000D01*
X124784627Y-58674996D01*
X124832955Y-58834312D01*
X124850000Y-59007373D01*
X124850000Y-80992627D01*
X124832955Y-81165688D01*
X124784627Y-81325004D01*
X124731178Y-81425000D01*
X111577320Y-81425000D01*
X111655126Y-81347194D01*
X111819283Y-81101517D01*
X111932356Y-80828534D01*
X111990000Y-80538737D01*
X111990000Y-80243263D01*
X111941620Y-80000039D01*
X116504287Y-75437373D01*
X116532895Y-75413895D01*
X116626619Y-75299693D01*
X116696261Y-75169401D01*
X116739147Y-75028026D01*
X116750000Y-74917835D01*
X116750000Y-74917828D01*
X116753627Y-74881000D01*
X116750000Y-74844172D01*
X116750000Y-72787501D01*
X116841879Y-72649994D01*
X116913492Y-72477105D01*
X116950000Y-72293567D01*
X116950000Y-72106433D01*
X116913492Y-71922895D01*
X116841879Y-71750006D01*
X116737913Y-71594410D01*
X116605590Y-71462087D01*
X116449994Y-71358121D01*
X116277105Y-71286508D01*
X116093567Y-71250000D01*
X115906433Y-71250000D01*
X115722895Y-71286508D01*
X115550006Y-71358121D01*
X115394410Y-71462087D01*
X115350000Y-71506497D01*
X115305590Y-71462087D01*
X115149994Y-71358121D01*
X114977105Y-71286508D01*
X114793567Y-71250000D01*
X114750000Y-71250000D01*
X114750000Y-71206433D01*
X114713492Y-71022895D01*
X114641879Y-70850006D01*
X114537913Y-70694410D01*
X114405590Y-70562087D01*
X114249994Y-70458121D01*
X114077105Y-70386508D01*
X113893567Y-70350000D01*
X113850000Y-70350000D01*
X113850000Y-70306433D01*
X113813492Y-70122895D01*
X113741879Y-69950006D01*
X113637913Y-69794410D01*
X113505590Y-69662087D01*
X113349994Y-69558121D01*
X113177105Y-69486508D01*
X112993567Y-69450000D01*
X112806433Y-69450000D01*
X112622895Y-69486508D01*
X112450006Y-69558121D01*
X112294410Y-69662087D01*
X112162087Y-69794410D01*
X112058121Y-69950006D01*
X111986508Y-70122895D01*
X111954244Y-70285095D01*
X110913490Y-71325850D01*
X110637737Y-71271000D01*
X110342263Y-71271000D01*
X110052466Y-71328644D01*
X109779483Y-71441717D01*
X109533806Y-71605874D01*
X109324874Y-71814806D01*
X109160717Y-72060483D01*
X109047644Y-72333466D01*
X108990000Y-72623263D01*
X108990000Y-72918737D01*
X109047644Y-73208534D01*
X109160717Y-73481517D01*
X109324874Y-73727194D01*
X109533806Y-73936126D01*
X109690760Y-74041000D01*
X109533806Y-74145874D01*
X109324874Y-74354806D01*
X109160717Y-74600483D01*
X109047644Y-74873466D01*
X108990000Y-75163263D01*
X108990000Y-75458737D01*
X109047644Y-75748534D01*
X109160717Y-76021517D01*
X109324874Y-76267194D01*
X109533806Y-76476126D01*
X109690760Y-76581000D01*
X109533806Y-76685874D01*
X109324874Y-76894806D01*
X109160717Y-77140483D01*
X109047644Y-77413466D01*
X108990000Y-77703263D01*
X108990000Y-77998737D01*
X109047644Y-78288534D01*
X109160717Y-78561517D01*
X109324874Y-78807194D01*
X109533806Y-79016126D01*
X109690760Y-79121000D01*
X109533806Y-79225874D01*
X109324874Y-79434806D01*
X109160717Y-79680483D01*
X109047644Y-79953466D01*
X108990000Y-80243263D01*
X108990000Y-80538737D01*
X109047644Y-80828534D01*
X109160717Y-81101517D01*
X109324874Y-81347194D01*
X109402680Y-81425000D01*
X103957320Y-81425000D01*
X104035126Y-81347194D01*
X104199283Y-81101517D01*
X104312356Y-80828534D01*
X104370000Y-80538737D01*
X104370000Y-80243263D01*
X104312356Y-79953466D01*
X104199283Y-79680483D01*
X104035126Y-79434806D01*
X103826194Y-79225874D01*
X103669240Y-79121000D01*
X103826194Y-79016126D01*
X104035126Y-78807194D01*
X104199283Y-78561517D01*
X104312356Y-78288534D01*
X104370000Y-77998737D01*
X104370000Y-77703263D01*
X104312356Y-77413466D01*
X104199283Y-77140483D01*
X104035126Y-76894806D01*
X103826194Y-76685874D01*
X103669240Y-76581000D01*
X103826194Y-76476126D01*
X104035126Y-76267194D01*
X104199283Y-76021517D01*
X104312356Y-75748534D01*
X104370000Y-75458737D01*
X104370000Y-75163263D01*
X104312356Y-74873466D01*
X104199283Y-74600483D01*
X104035126Y-74354806D01*
X103826194Y-74145874D01*
X103669240Y-74041000D01*
X103826194Y-73936126D01*
X104035126Y-73727194D01*
X104199283Y-73481517D01*
X104312356Y-73208534D01*
X104370000Y-72918737D01*
X104370000Y-72623263D01*
X104312356Y-72333466D01*
X104199283Y-72060483D01*
X104035126Y-71814806D01*
X103826194Y-71605874D01*
X103580517Y-71441717D01*
X103307534Y-71328644D01*
X103017737Y-71271000D01*
X102722263Y-71271000D01*
X102432466Y-71328644D01*
X102159483Y-71441717D01*
X101913806Y-71605874D01*
X101704874Y-71814806D01*
X101540717Y-72060483D01*
X101427644Y-72333466D01*
X101370000Y-72623263D01*
X101370000Y-72918737D01*
X101427644Y-73208534D01*
X101540717Y-73481517D01*
X101704874Y-73727194D01*
X101913806Y-73936126D01*
X102070760Y-74041000D01*
X101913806Y-74145874D01*
X101704874Y-74354806D01*
X101540717Y-74600483D01*
X101427644Y-74873466D01*
X101370000Y-75163263D01*
X101370000Y-75458737D01*
X101427644Y-75748534D01*
X101540717Y-76021517D01*
X101704874Y-76267194D01*
X101913806Y-76476126D01*
X102070760Y-76581000D01*
X101913806Y-76685874D01*
X101704874Y-76894806D01*
X101540717Y-77140483D01*
X101427644Y-77413466D01*
X101370000Y-77703263D01*
X101370000Y-77998737D01*
X101427644Y-78288534D01*
X101540717Y-78561517D01*
X101704874Y-78807194D01*
X101913806Y-79016126D01*
X102070760Y-79121000D01*
X101913806Y-79225874D01*
X101704874Y-79434806D01*
X101540717Y-79680483D01*
X101427644Y-79953466D01*
X101370000Y-80243263D01*
X101370000Y-80538737D01*
X101427644Y-80828534D01*
X101540717Y-81101517D01*
X101704874Y-81347194D01*
X101782680Y-81425000D01*
X100028125Y-81425000D01*
X99917986Y-81414201D01*
X99839095Y-81390382D01*
X99766334Y-81351694D01*
X99702473Y-81299610D01*
X99649944Y-81236114D01*
X99610751Y-81163628D01*
X99586382Y-81084904D01*
X99575000Y-80976616D01*
X99575000Y-59028126D01*
X99585799Y-58917986D01*
X99609618Y-58839094D01*
X99648305Y-58766335D01*
X99700389Y-58702473D01*
X99763885Y-58649944D01*
X99836375Y-58610750D01*
X99915096Y-58586382D01*
X100023383Y-58575000D01*
X101556408Y-58575000D01*
X101540717Y-58598483D01*
G37*
X101540717Y-58598483D02*
X101427644Y-58871466D01*
X101370000Y-59161263D01*
X101370000Y-59456737D01*
X101427644Y-59746534D01*
X101540717Y-60019517D01*
X101704874Y-60265194D01*
X101913806Y-60474126D01*
X102070760Y-60579000D01*
X101913806Y-60683874D01*
X101704874Y-60892806D01*
X101540717Y-61138483D01*
X101427644Y-61411466D01*
X101370000Y-61701263D01*
X101370000Y-61996737D01*
X101427644Y-62286534D01*
X101540717Y-62559517D01*
X101704874Y-62805194D01*
X101913806Y-63014126D01*
X102070760Y-63119000D01*
X101913806Y-63223874D01*
X101704874Y-63432806D01*
X101540717Y-63678483D01*
X101427644Y-63951466D01*
X101370000Y-64241263D01*
X101370000Y-64536737D01*
X101427644Y-64826534D01*
X101540717Y-65099517D01*
X101704874Y-65345194D01*
X101913806Y-65554126D01*
X102070760Y-65659000D01*
X101913806Y-65763874D01*
X101704874Y-65972806D01*
X101540717Y-66218483D01*
X101427644Y-66491466D01*
X101370000Y-66781263D01*
X101370000Y-67076737D01*
X101427644Y-67366534D01*
X101540717Y-67639517D01*
X101704874Y-67885194D01*
X101913806Y-68094126D01*
X102159483Y-68258283D01*
X102432466Y-68371356D01*
X102722263Y-68429000D01*
X103017737Y-68429000D01*
X103307534Y-68371356D01*
X103580517Y-68258283D01*
X103826194Y-68094126D01*
X104035126Y-67885194D01*
X104199283Y-67639517D01*
X104312356Y-67366534D01*
X104370000Y-67076737D01*
X104370000Y-66781263D01*
X104312356Y-66491466D01*
X104199283Y-66218483D01*
X104035126Y-65972806D01*
X103826194Y-65763874D01*
X103669240Y-65659000D01*
X103826194Y-65554126D01*
X104035126Y-65345194D01*
X104199283Y-65099517D01*
X104312356Y-64826534D01*
X104370000Y-64536737D01*
X104370000Y-64241263D01*
X104312356Y-63951466D01*
X104199283Y-63678483D01*
X104035126Y-63432806D01*
X103826194Y-63223874D01*
X103669240Y-63119000D01*
X103826194Y-63014126D01*
X104035126Y-62805194D01*
X104199283Y-62559517D01*
X104312356Y-62286534D01*
X104370000Y-61996737D01*
X104370000Y-61701263D01*
X104312356Y-61411466D01*
X104199283Y-61138483D01*
X104035126Y-60892806D01*
X103826194Y-60683874D01*
X103669240Y-60579000D01*
X103826194Y-60474126D01*
X104035126Y-60265194D01*
X104199283Y-60019517D01*
X104312356Y-59746534D01*
X104370000Y-59456737D01*
X104370000Y-59161263D01*
X104312356Y-58871466D01*
X104199283Y-58598483D01*
X104183592Y-58575000D01*
X109176408Y-58575000D01*
X109160717Y-58598483D01*
X109047644Y-58871466D01*
X108990000Y-59161263D01*
X108990000Y-59456737D01*
X109047644Y-59746534D01*
X109160717Y-60019517D01*
X109324874Y-60265194D01*
X109533806Y-60474126D01*
X109690760Y-60579000D01*
X109533806Y-60683874D01*
X109324874Y-60892806D01*
X109160717Y-61138483D01*
X109047644Y-61411466D01*
X108990000Y-61701263D01*
X108990000Y-61996737D01*
X109047644Y-62286534D01*
X109160717Y-62559517D01*
X109324874Y-62805194D01*
X109533806Y-63014126D01*
X109690760Y-63119000D01*
X109533806Y-63223874D01*
X109324874Y-63432806D01*
X109160717Y-63678483D01*
X109047644Y-63951466D01*
X108990000Y-64241263D01*
X108990000Y-64536737D01*
X109047644Y-64826534D01*
X109160717Y-65099517D01*
X109324874Y-65345194D01*
X109533806Y-65554126D01*
X109690760Y-65659000D01*
X109533806Y-65763874D01*
X109324874Y-65972806D01*
X109160717Y-66218483D01*
X109047644Y-66491466D01*
X108990000Y-66781263D01*
X108990000Y-67076737D01*
X109047644Y-67366534D01*
X109160717Y-67639517D01*
X109324874Y-67885194D01*
X109533806Y-68094126D01*
X109779483Y-68258283D01*
X110052466Y-68371356D01*
X110342263Y-68429000D01*
X110637737Y-68429000D01*
X110927534Y-68371356D01*
X111200517Y-68258283D01*
X111446194Y-68094126D01*
X111655126Y-67885194D01*
X111819283Y-67639517D01*
X111932356Y-67366534D01*
X111990000Y-67076737D01*
X111990000Y-66781263D01*
X111932356Y-66491466D01*
X111819283Y-66218483D01*
X111655126Y-65972806D01*
X111446194Y-65763874D01*
X111289240Y-65659000D01*
X111446194Y-65554126D01*
X111655126Y-65345194D01*
X111819283Y-65099517D01*
X111932356Y-64826534D01*
X111990000Y-64536737D01*
X111990000Y-64241263D01*
X111932356Y-63951466D01*
X111819283Y-63678483D01*
X111655126Y-63432806D01*
X111446194Y-63223874D01*
X111289240Y-63119000D01*
X111446194Y-63014126D01*
X111655126Y-62805194D01*
X111819283Y-62559517D01*
X111932356Y-62286534D01*
X111990000Y-61996737D01*
X111990000Y-61701263D01*
X111932356Y-61411466D01*
X111819283Y-61138483D01*
X111655126Y-60892806D01*
X111446194Y-60683874D01*
X111289240Y-60579000D01*
X111446194Y-60474126D01*
X111655126Y-60265194D01*
X111819283Y-60019517D01*
X111932356Y-59746534D01*
X111990000Y-59456737D01*
X111990000Y-59161263D01*
X111932356Y-58871466D01*
X111819283Y-58598483D01*
X111803592Y-58575000D01*
X124731178Y-58575000D01*
X124784627Y-58674996D01*
X124832955Y-58834312D01*
X124850000Y-59007373D01*
X124850000Y-80992627D01*
X124832955Y-81165688D01*
X124784627Y-81325004D01*
X124731178Y-81425000D01*
X111577320Y-81425000D01*
X111655126Y-81347194D01*
X111819283Y-81101517D01*
X111932356Y-80828534D01*
X111990000Y-80538737D01*
X111990000Y-80243263D01*
X111941620Y-80000039D01*
X116504287Y-75437373D01*
X116532895Y-75413895D01*
X116626619Y-75299693D01*
X116696261Y-75169401D01*
X116739147Y-75028026D01*
X116750000Y-74917835D01*
X116750000Y-74917828D01*
X116753627Y-74881000D01*
X116750000Y-74844172D01*
X116750000Y-72787501D01*
X116841879Y-72649994D01*
X116913492Y-72477105D01*
X116950000Y-72293567D01*
X116950000Y-72106433D01*
X116913492Y-71922895D01*
X116841879Y-71750006D01*
X116737913Y-71594410D01*
X116605590Y-71462087D01*
X116449994Y-71358121D01*
X116277105Y-71286508D01*
X116093567Y-71250000D01*
X115906433Y-71250000D01*
X115722895Y-71286508D01*
X115550006Y-71358121D01*
X115394410Y-71462087D01*
X115350000Y-71506497D01*
X115305590Y-71462087D01*
X115149994Y-71358121D01*
X114977105Y-71286508D01*
X114793567Y-71250000D01*
X114750000Y-71250000D01*
X114750000Y-71206433D01*
X114713492Y-71022895D01*
X114641879Y-70850006D01*
X114537913Y-70694410D01*
X114405590Y-70562087D01*
X114249994Y-70458121D01*
X114077105Y-70386508D01*
X113893567Y-70350000D01*
X113850000Y-70350000D01*
X113850000Y-70306433D01*
X113813492Y-70122895D01*
X113741879Y-69950006D01*
X113637913Y-69794410D01*
X113505590Y-69662087D01*
X113349994Y-69558121D01*
X113177105Y-69486508D01*
X112993567Y-69450000D01*
X112806433Y-69450000D01*
X112622895Y-69486508D01*
X112450006Y-69558121D01*
X112294410Y-69662087D01*
X112162087Y-69794410D01*
X112058121Y-69950006D01*
X111986508Y-70122895D01*
X111954244Y-70285095D01*
X110913490Y-71325850D01*
X110637737Y-71271000D01*
X110342263Y-71271000D01*
X110052466Y-71328644D01*
X109779483Y-71441717D01*
X109533806Y-71605874D01*
X109324874Y-71814806D01*
X109160717Y-72060483D01*
X109047644Y-72333466D01*
X108990000Y-72623263D01*
X108990000Y-72918737D01*
X109047644Y-73208534D01*
X109160717Y-73481517D01*
X109324874Y-73727194D01*
X109533806Y-73936126D01*
X109690760Y-74041000D01*
X109533806Y-74145874D01*
X109324874Y-74354806D01*
X109160717Y-74600483D01*
X109047644Y-74873466D01*
X108990000Y-75163263D01*
X108990000Y-75458737D01*
X109047644Y-75748534D01*
X109160717Y-76021517D01*
X109324874Y-76267194D01*
X109533806Y-76476126D01*
X109690760Y-76581000D01*
X109533806Y-76685874D01*
X109324874Y-76894806D01*
X109160717Y-77140483D01*
X109047644Y-77413466D01*
X108990000Y-77703263D01*
X108990000Y-77998737D01*
X109047644Y-78288534D01*
X109160717Y-78561517D01*
X109324874Y-78807194D01*
X109533806Y-79016126D01*
X109690760Y-79121000D01*
X109533806Y-79225874D01*
X109324874Y-79434806D01*
X109160717Y-79680483D01*
X109047644Y-79953466D01*
X108990000Y-80243263D01*
X108990000Y-80538737D01*
X109047644Y-80828534D01*
X109160717Y-81101517D01*
X109324874Y-81347194D01*
X109402680Y-81425000D01*
X103957320Y-81425000D01*
X104035126Y-81347194D01*
X104199283Y-81101517D01*
X104312356Y-80828534D01*
X104370000Y-80538737D01*
X104370000Y-80243263D01*
X104312356Y-79953466D01*
X104199283Y-79680483D01*
X104035126Y-79434806D01*
X103826194Y-79225874D01*
X103669240Y-79121000D01*
X103826194Y-79016126D01*
X104035126Y-78807194D01*
X104199283Y-78561517D01*
X104312356Y-78288534D01*
X104370000Y-77998737D01*
X104370000Y-77703263D01*
X104312356Y-77413466D01*
X104199283Y-77140483D01*
X104035126Y-76894806D01*
X103826194Y-76685874D01*
X103669240Y-76581000D01*
X103826194Y-76476126D01*
X104035126Y-76267194D01*
X104199283Y-76021517D01*
X104312356Y-75748534D01*
X104370000Y-75458737D01*
X104370000Y-75163263D01*
X104312356Y-74873466D01*
X104199283Y-74600483D01*
X104035126Y-74354806D01*
X103826194Y-74145874D01*
X103669240Y-74041000D01*
X103826194Y-73936126D01*
X104035126Y-73727194D01*
X104199283Y-73481517D01*
X104312356Y-73208534D01*
X104370000Y-72918737D01*
X104370000Y-72623263D01*
X104312356Y-72333466D01*
X104199283Y-72060483D01*
X104035126Y-71814806D01*
X103826194Y-71605874D01*
X103580517Y-71441717D01*
X103307534Y-71328644D01*
X103017737Y-71271000D01*
X102722263Y-71271000D01*
X102432466Y-71328644D01*
X102159483Y-71441717D01*
X101913806Y-71605874D01*
X101704874Y-71814806D01*
X101540717Y-72060483D01*
X101427644Y-72333466D01*
X101370000Y-72623263D01*
X101370000Y-72918737D01*
X101427644Y-73208534D01*
X101540717Y-73481517D01*
X101704874Y-73727194D01*
X101913806Y-73936126D01*
X102070760Y-74041000D01*
X101913806Y-74145874D01*
X101704874Y-74354806D01*
X101540717Y-74600483D01*
X101427644Y-74873466D01*
X101370000Y-75163263D01*
X101370000Y-75458737D01*
X101427644Y-75748534D01*
X101540717Y-76021517D01*
X101704874Y-76267194D01*
X101913806Y-76476126D01*
X102070760Y-76581000D01*
X101913806Y-76685874D01*
X101704874Y-76894806D01*
X101540717Y-77140483D01*
X101427644Y-77413466D01*
X101370000Y-77703263D01*
X101370000Y-77998737D01*
X101427644Y-78288534D01*
X101540717Y-78561517D01*
X101704874Y-78807194D01*
X101913806Y-79016126D01*
X102070760Y-79121000D01*
X101913806Y-79225874D01*
X101704874Y-79434806D01*
X101540717Y-79680483D01*
X101427644Y-79953466D01*
X101370000Y-80243263D01*
X101370000Y-80538737D01*
X101427644Y-80828534D01*
X101540717Y-81101517D01*
X101704874Y-81347194D01*
X101782680Y-81425000D01*
X100028125Y-81425000D01*
X99917986Y-81414201D01*
X99839095Y-81390382D01*
X99766334Y-81351694D01*
X99702473Y-81299610D01*
X99649944Y-81236114D01*
X99610751Y-81163628D01*
X99586382Y-81084904D01*
X99575000Y-80976616D01*
X99575000Y-59028126D01*
X99585799Y-58917986D01*
X99609618Y-58839094D01*
X99648305Y-58766335D01*
X99700389Y-58702473D01*
X99763885Y-58649944D01*
X99836375Y-58610750D01*
X99915096Y-58586382D01*
X100023383Y-58575000D01*
X101556408Y-58575000D01*
X101540717Y-58598483D01*
%TD*%
M02*
