M48
; DRILL file {KiCad 5.1.6-c6e7f7d~86~ubuntu18.04.1} date Tue Jul 28 03:29:08 2020
; FORMAT={-:-/ absolute / inch / decimal}
; #@! TF.CreationDate,2020-07-28T03:29:08+01:00
; #@! TF.GenerationSoftware,Kicad,Pcbnew,5.1.6-c6e7f7d~86~ubuntu18.04.1
; #@! TF.FileFunction,Plated,1,2,PTH
FMAT,2
INCH
T1C0.0157
T2C0.0394
%
G90
G05
T1
X4.4449Y-2.7717
X4.4803Y-2.8071
X4.5157Y-2.8425
X4.5669Y-2.8425
X4.8937Y-2.4213
X4.8937Y-2.5197
X4.8937Y-2.5709
X4.8937Y-2.8937
X4.8937Y-2.9921
X4.8937Y-3.0433
T2
X4.25Y-2.865
X4.25Y-2.965
X4.25Y-3.065
X4.25Y-3.165
X4.35Y-2.865
X4.35Y-2.965
X4.35Y-3.065
X4.35Y-3.165
X3.95Y-2.335
X3.95Y-2.435
X3.95Y-2.535
X3.95Y-2.635
X4.05Y-2.335
X4.05Y-2.435
X4.05Y-2.535
X4.05Y-2.635
X4.25Y-2.335
X4.25Y-2.435
X4.25Y-2.535
X4.25Y-2.635
X4.35Y-2.335
X4.35Y-2.435
X4.35Y-2.535
X4.35Y-2.635
X3.95Y-2.865
X3.95Y-2.965
X3.95Y-3.065
X3.95Y-3.165
X4.05Y-2.865
X4.05Y-2.965
X4.05Y-3.065
X4.05Y-3.165
T0
M30
