%TF.GenerationSoftware,KiCad,Pcbnew,5.1.6-c6e7f7d~86~ubuntu18.04.1*%
%TF.CreationDate,2020-07-28T03:10:59+01:00*%
%TF.ProjectId,pmod_picoblade,706d6f64-5f70-4696-936f-626c6164652e,rev?*%
%TF.SameCoordinates,Original*%
%TF.FileFunction,Soldermask,Bot*%
%TF.FilePolarity,Negative*%
%FSLAX46Y46*%
G04 Gerber Fmt 4.6, Leading zero omitted, Abs format (unit mm)*
G04 Created by KiCad (PCBNEW 5.1.6-c6e7f7d~86~ubuntu18.04.1) date 2020-07-28 03:10:59*
%MOMM*%
%LPD*%
G01*
G04 APERTURE LIST*
%ADD10C,2.000000*%
G04 APERTURE END LIST*
D10*
%TO.C,J6*%
X110490000Y-66929000D03*
X107950000Y-66929000D03*
X110490000Y-64389000D03*
X107950000Y-64389000D03*
X110490000Y-61849000D03*
X107950000Y-61849000D03*
X110490000Y-59309000D03*
X107950000Y-59309000D03*
%TD*%
%TO.C,J5*%
X100330000Y-59309000D03*
X102870000Y-59309000D03*
X100330000Y-61849000D03*
X102870000Y-61849000D03*
X100330000Y-64389000D03*
X102870000Y-64389000D03*
X100330000Y-66929000D03*
X102870000Y-66929000D03*
%TD*%
%TO.C,J4*%
X132650000Y-63500000D03*
X135190000Y-63500000D03*
X132650000Y-66040000D03*
X135190000Y-66040000D03*
X132650000Y-68580000D03*
X135190000Y-68580000D03*
X132650000Y-71120000D03*
X135190000Y-71120000D03*
X132650000Y-73660000D03*
X135190000Y-73660000D03*
X132650000Y-76200000D03*
X135190000Y-76200000D03*
%TD*%
%TO.C,J2*%
X110490000Y-80391000D03*
X107950000Y-80391000D03*
X110490000Y-77851000D03*
X107950000Y-77851000D03*
X110490000Y-75311000D03*
X107950000Y-75311000D03*
X110490000Y-72771000D03*
X107950000Y-72771000D03*
%TD*%
%TO.C,J1*%
X102870000Y-80391000D03*
X100330000Y-80391000D03*
X102870000Y-77851000D03*
X100330000Y-77851000D03*
X102870000Y-75311000D03*
X100330000Y-75311000D03*
X102870000Y-72771000D03*
X100330000Y-72771000D03*
%TD*%
M02*
