%TF.GenerationSoftware,KiCad,Pcbnew,5.1.6-c6e7f7d~86~ubuntu18.04.1*%
%TF.CreationDate,2020-07-28T03:10:59+01:00*%
%TF.ProjectId,pmod_picoblade,706d6f64-5f70-4696-936f-626c6164652e,rev?*%
%TF.SameCoordinates,Original*%
%TF.FileFunction,Legend,Top*%
%TF.FilePolarity,Positive*%
%FSLAX46Y46*%
G04 Gerber Fmt 4.6, Leading zero omitted, Abs format (unit mm)*
G04 Created by KiCad (PCBNEW 5.1.6-c6e7f7d~86~ubuntu18.04.1) date 2020-07-28 03:10:59*
%MOMM*%
%LPD*%
G01*
G04 APERTURE LIST*
%ADD10C,0.150000*%
%ADD11R,1.400000X0.900000*%
%ADD12R,3.100000X2.200000*%
%ADD13C,2.000000*%
G04 APERTURE END LIST*
D10*
X132142857Y-78952380D02*
X132142857Y-77952380D01*
X132523809Y-77952380D01*
X132619047Y-78000000D01*
X132666666Y-78047619D01*
X132714285Y-78142857D01*
X132714285Y-78285714D01*
X132666666Y-78380952D01*
X132619047Y-78428571D01*
X132523809Y-78476190D01*
X132142857Y-78476190D01*
X133142857Y-78952380D02*
X133142857Y-77952380D01*
X133476190Y-78666666D01*
X133809523Y-77952380D01*
X133809523Y-78952380D01*
X134476190Y-77952380D02*
X134666666Y-77952380D01*
X134761904Y-78000000D01*
X134857142Y-78095238D01*
X134904761Y-78285714D01*
X134904761Y-78619047D01*
X134857142Y-78809523D01*
X134761904Y-78904761D01*
X134666666Y-78952380D01*
X134476190Y-78952380D01*
X134380952Y-78904761D01*
X134285714Y-78809523D01*
X134238095Y-78619047D01*
X134238095Y-78285714D01*
X134285714Y-78095238D01*
X134380952Y-78000000D01*
X134476190Y-77952380D01*
X135333333Y-78952380D02*
X135333333Y-77952380D01*
X135571428Y-77952380D01*
X135714285Y-78000000D01*
X135809523Y-78095238D01*
X135857142Y-78190476D01*
X135904761Y-78380952D01*
X135904761Y-78523809D01*
X135857142Y-78714285D01*
X135809523Y-78809523D01*
X135714285Y-78904761D01*
X135571428Y-78952380D01*
X135333333Y-78952380D01*
X125619047Y-79627380D02*
X125142857Y-79627380D01*
X125142857Y-78627380D01*
X126095238Y-79627380D02*
X126000000Y-79579761D01*
X125952380Y-79532142D01*
X125904761Y-79436904D01*
X125904761Y-79151190D01*
X125952380Y-79055952D01*
X126000000Y-79008333D01*
X126095238Y-78960714D01*
X126238095Y-78960714D01*
X126333333Y-79008333D01*
X126380952Y-79055952D01*
X126428571Y-79151190D01*
X126428571Y-79436904D01*
X126380952Y-79532142D01*
X126333333Y-79579761D01*
X126238095Y-79627380D01*
X126095238Y-79627380D01*
X127285714Y-78960714D02*
X127285714Y-79770238D01*
X127238095Y-79865476D01*
X127190476Y-79913095D01*
X127095238Y-79960714D01*
X126952380Y-79960714D01*
X126857142Y-79913095D01*
X127285714Y-79579761D02*
X127190476Y-79627380D01*
X127000000Y-79627380D01*
X126904761Y-79579761D01*
X126857142Y-79532142D01*
X126809523Y-79436904D01*
X126809523Y-79151190D01*
X126857142Y-79055952D01*
X126904761Y-79008333D01*
X127000000Y-78960714D01*
X127190476Y-78960714D01*
X127285714Y-79008333D01*
X127761904Y-79627380D02*
X127761904Y-78960714D01*
X127761904Y-78627380D02*
X127714285Y-78675000D01*
X127761904Y-78722619D01*
X127809523Y-78675000D01*
X127761904Y-78627380D01*
X127761904Y-78722619D01*
X128666666Y-79579761D02*
X128571428Y-79627380D01*
X128380952Y-79627380D01*
X128285714Y-79579761D01*
X128238095Y-79532142D01*
X128190476Y-79436904D01*
X128190476Y-79151190D01*
X128238095Y-79055952D01*
X128285714Y-79008333D01*
X128380952Y-78960714D01*
X128571428Y-78960714D01*
X128666666Y-79008333D01*
X129714285Y-78960714D02*
X130095238Y-78960714D01*
X129857142Y-78627380D02*
X129857142Y-79484523D01*
X129904761Y-79579761D01*
X130000000Y-79627380D01*
X130095238Y-79627380D01*
X130571428Y-79627380D02*
X130476190Y-79579761D01*
X130428571Y-79532142D01*
X130380952Y-79436904D01*
X130380952Y-79151190D01*
X130428571Y-79055952D01*
X130476190Y-79008333D01*
X130571428Y-78960714D01*
X130714285Y-78960714D01*
X130809523Y-79008333D01*
X130857142Y-79055952D01*
X130904761Y-79151190D01*
X130904761Y-79436904D01*
X130857142Y-79532142D01*
X130809523Y-79579761D01*
X130714285Y-79627380D01*
X130571428Y-79627380D01*
X121857142Y-81277380D02*
X121857142Y-80277380D01*
X122238095Y-80277380D01*
X122333333Y-80325000D01*
X122380952Y-80372619D01*
X122428571Y-80467857D01*
X122428571Y-80610714D01*
X122380952Y-80705952D01*
X122333333Y-80753571D01*
X122238095Y-80801190D01*
X121857142Y-80801190D01*
X122857142Y-81277380D02*
X122857142Y-80277380D01*
X123190476Y-80991666D01*
X123523809Y-80277380D01*
X123523809Y-81277380D01*
X124190476Y-80277380D02*
X124380952Y-80277380D01*
X124476190Y-80325000D01*
X124571428Y-80420238D01*
X124619047Y-80610714D01*
X124619047Y-80944047D01*
X124571428Y-81134523D01*
X124476190Y-81229761D01*
X124380952Y-81277380D01*
X124190476Y-81277380D01*
X124095238Y-81229761D01*
X124000000Y-81134523D01*
X123952380Y-80944047D01*
X123952380Y-80610714D01*
X124000000Y-80420238D01*
X124095238Y-80325000D01*
X124190476Y-80277380D01*
X125047619Y-81277380D02*
X125047619Y-80277380D01*
X125285714Y-80277380D01*
X125428571Y-80325000D01*
X125523809Y-80420238D01*
X125571428Y-80515476D01*
X125619047Y-80705952D01*
X125619047Y-80848809D01*
X125571428Y-81039285D01*
X125523809Y-81134523D01*
X125428571Y-81229761D01*
X125285714Y-81277380D01*
X125047619Y-81277380D01*
X126047619Y-80896428D02*
X126809523Y-80896428D01*
X126428571Y-81277380D02*
X126428571Y-80515476D01*
X127285714Y-81277380D02*
X127285714Y-80277380D01*
X127666666Y-80277380D01*
X127761904Y-80325000D01*
X127809523Y-80372619D01*
X127857142Y-80467857D01*
X127857142Y-80610714D01*
X127809523Y-80705952D01*
X127761904Y-80753571D01*
X127666666Y-80801190D01*
X127285714Y-80801190D01*
X128285714Y-81277380D02*
X128285714Y-80610714D01*
X128285714Y-80277380D02*
X128238095Y-80325000D01*
X128285714Y-80372619D01*
X128333333Y-80325000D01*
X128285714Y-80277380D01*
X128285714Y-80372619D01*
X129190476Y-81229761D02*
X129095238Y-81277380D01*
X128904761Y-81277380D01*
X128809523Y-81229761D01*
X128761904Y-81182142D01*
X128714285Y-81086904D01*
X128714285Y-80801190D01*
X128761904Y-80705952D01*
X128809523Y-80658333D01*
X128904761Y-80610714D01*
X129095238Y-80610714D01*
X129190476Y-80658333D01*
X129761904Y-81277380D02*
X129666666Y-81229761D01*
X129619047Y-81182142D01*
X129571428Y-81086904D01*
X129571428Y-80801190D01*
X129619047Y-80705952D01*
X129666666Y-80658333D01*
X129761904Y-80610714D01*
X129904761Y-80610714D01*
X130000000Y-80658333D01*
X130047619Y-80705952D01*
X130095238Y-80801190D01*
X130095238Y-81086904D01*
X130047619Y-81182142D01*
X130000000Y-81229761D01*
X129904761Y-81277380D01*
X129761904Y-81277380D01*
X130523809Y-81277380D02*
X130523809Y-80277380D01*
X130523809Y-80658333D02*
X130619047Y-80610714D01*
X130809523Y-80610714D01*
X130904761Y-80658333D01*
X130952380Y-80705952D01*
X131000000Y-80801190D01*
X131000000Y-81086904D01*
X130952380Y-81182142D01*
X130904761Y-81229761D01*
X130809523Y-81277380D01*
X130619047Y-81277380D01*
X130523809Y-81229761D01*
X131571428Y-81277380D02*
X131476190Y-81229761D01*
X131428571Y-81134523D01*
X131428571Y-80277380D01*
X132380952Y-81277380D02*
X132380952Y-80753571D01*
X132333333Y-80658333D01*
X132238095Y-80610714D01*
X132047619Y-80610714D01*
X131952380Y-80658333D01*
X132380952Y-81229761D02*
X132285714Y-81277380D01*
X132047619Y-81277380D01*
X131952380Y-81229761D01*
X131904761Y-81134523D01*
X131904761Y-81039285D01*
X131952380Y-80944047D01*
X132047619Y-80896428D01*
X132285714Y-80896428D01*
X132380952Y-80848809D01*
X133285714Y-81277380D02*
X133285714Y-80277380D01*
X133285714Y-81229761D02*
X133190476Y-81277380D01*
X133000000Y-81277380D01*
X132904761Y-81229761D01*
X132857142Y-81182142D01*
X132809523Y-81086904D01*
X132809523Y-80801190D01*
X132857142Y-80705952D01*
X132904761Y-80658333D01*
X133000000Y-80610714D01*
X133190476Y-80610714D01*
X133285714Y-80658333D01*
X134142857Y-81229761D02*
X134047619Y-81277380D01*
X133857142Y-81277380D01*
X133761904Y-81229761D01*
X133714285Y-81134523D01*
X133714285Y-80753571D01*
X133761904Y-80658333D01*
X133857142Y-80610714D01*
X134047619Y-80610714D01*
X134142857Y-80658333D01*
X134190476Y-80753571D01*
X134190476Y-80848809D01*
X133714285Y-80944047D01*
X121000000Y-64700000D02*
X121300000Y-64700000D01*
X121000000Y-63400000D02*
X121300000Y-63400000D01*
X120664404Y-64152380D02*
X120188214Y-64152380D01*
X120140595Y-64628571D01*
X120188214Y-64580952D01*
X120283452Y-64533333D01*
X120521547Y-64533333D01*
X120616785Y-64580952D01*
X120664404Y-64628571D01*
X120712023Y-64723809D01*
X120712023Y-64961904D01*
X120664404Y-65057142D01*
X120616785Y-65104761D01*
X120521547Y-65152380D01*
X120283452Y-65152380D01*
X120188214Y-65104761D01*
X120140595Y-65057142D01*
X120616785Y-62752380D02*
X120426309Y-62752380D01*
X120331071Y-62800000D01*
X120283452Y-62847619D01*
X120188214Y-62990476D01*
X120140595Y-63180952D01*
X120140595Y-63561904D01*
X120188214Y-63657142D01*
X120235833Y-63704761D01*
X120331071Y-63752380D01*
X120521547Y-63752380D01*
X120616785Y-63704761D01*
X120664404Y-63657142D01*
X120712023Y-63561904D01*
X120712023Y-63323809D01*
X120664404Y-63228571D01*
X120616785Y-63180952D01*
X120521547Y-63133333D01*
X120331071Y-63133333D01*
X120235833Y-63180952D01*
X120188214Y-63228571D01*
X120140595Y-63323809D01*
X126726071Y-60877380D02*
X126821309Y-60877380D01*
X126916547Y-60925000D01*
X126964166Y-60972619D01*
X127011785Y-61067857D01*
X127059404Y-61258333D01*
X127059404Y-61496428D01*
X127011785Y-61686904D01*
X126964166Y-61782142D01*
X126916547Y-61829761D01*
X126821309Y-61877380D01*
X126726071Y-61877380D01*
X126630833Y-61829761D01*
X126583214Y-61782142D01*
X126535595Y-61686904D01*
X126487976Y-61496428D01*
X126487976Y-61258333D01*
X126535595Y-61067857D01*
X126583214Y-60972619D01*
X126630833Y-60925000D01*
X126726071Y-60877380D01*
X127345119Y-60877380D02*
X127678452Y-61877380D01*
X128011785Y-60877380D01*
X126392738Y-62527380D02*
X126964166Y-62527380D01*
X126678452Y-63527380D02*
X126678452Y-62527380D01*
X127202261Y-62527380D02*
X127868928Y-63527380D01*
X127868928Y-62527380D02*
X127202261Y-63527380D01*
X127107023Y-65177380D02*
X126773690Y-64701190D01*
X126535595Y-65177380D02*
X126535595Y-64177380D01*
X126916547Y-64177380D01*
X127011785Y-64225000D01*
X127059404Y-64272619D01*
X127107023Y-64367857D01*
X127107023Y-64510714D01*
X127059404Y-64605952D01*
X127011785Y-64653571D01*
X126916547Y-64701190D01*
X126535595Y-64701190D01*
X127440357Y-64177380D02*
X128107023Y-65177380D01*
X128107023Y-64177380D02*
X127440357Y-65177380D01*
X126440357Y-65827380D02*
X127059404Y-65827380D01*
X126726071Y-66208333D01*
X126868928Y-66208333D01*
X126964166Y-66255952D01*
X127011785Y-66303571D01*
X127059404Y-66398809D01*
X127059404Y-66636904D01*
X127011785Y-66732142D01*
X126964166Y-66779761D01*
X126868928Y-66827380D01*
X126583214Y-66827380D01*
X126487976Y-66779761D01*
X126440357Y-66732142D01*
X127345119Y-65827380D02*
X127678452Y-66827380D01*
X128011785Y-65827380D01*
X128554404Y-75652380D02*
X128649642Y-75652380D01*
X128744880Y-75700000D01*
X128792500Y-75747619D01*
X128840119Y-75842857D01*
X128887738Y-76033333D01*
X128887738Y-76271428D01*
X128840119Y-76461904D01*
X128792500Y-76557142D01*
X128744880Y-76604761D01*
X128649642Y-76652380D01*
X128554404Y-76652380D01*
X128459166Y-76604761D01*
X128411547Y-76557142D01*
X128363928Y-76461904D01*
X128316309Y-76271428D01*
X128316309Y-76033333D01*
X128363928Y-75842857D01*
X128411547Y-75747619D01*
X128459166Y-75700000D01*
X128554404Y-75652380D01*
X130506785Y-75985714D02*
X130506785Y-76652380D01*
X130268690Y-75604761D02*
X130030595Y-76319047D01*
X130649642Y-76319047D01*
X128887738Y-74112380D02*
X128316309Y-74112380D01*
X128602023Y-74112380D02*
X128602023Y-73112380D01*
X128506785Y-73255238D01*
X128411547Y-73350476D01*
X128316309Y-73398095D01*
X130554404Y-73112380D02*
X130078214Y-73112380D01*
X130030595Y-73588571D01*
X130078214Y-73540952D01*
X130173452Y-73493333D01*
X130411547Y-73493333D01*
X130506785Y-73540952D01*
X130554404Y-73588571D01*
X130602023Y-73683809D01*
X130602023Y-73921904D01*
X130554404Y-74017142D01*
X130506785Y-74064761D01*
X130411547Y-74112380D01*
X130173452Y-74112380D01*
X130078214Y-74064761D01*
X130030595Y-74017142D01*
X128316309Y-70667619D02*
X128363928Y-70620000D01*
X128459166Y-70572380D01*
X128697261Y-70572380D01*
X128792500Y-70620000D01*
X128840119Y-70667619D01*
X128887738Y-70762857D01*
X128887738Y-70858095D01*
X128840119Y-71000952D01*
X128268690Y-71572380D01*
X128887738Y-71572380D01*
X130506785Y-70572380D02*
X130316309Y-70572380D01*
X130221071Y-70620000D01*
X130173452Y-70667619D01*
X130078214Y-70810476D01*
X130030595Y-71000952D01*
X130030595Y-71381904D01*
X130078214Y-71477142D01*
X130125833Y-71524761D01*
X130221071Y-71572380D01*
X130411547Y-71572380D01*
X130506785Y-71524761D01*
X130554404Y-71477142D01*
X130602023Y-71381904D01*
X130602023Y-71143809D01*
X130554404Y-71048571D01*
X130506785Y-71000952D01*
X130411547Y-70953333D01*
X130221071Y-70953333D01*
X130125833Y-71000952D01*
X130078214Y-71048571D01*
X130030595Y-71143809D01*
X128268690Y-68032380D02*
X128887738Y-68032380D01*
X128554404Y-68413333D01*
X128697261Y-68413333D01*
X128792500Y-68460952D01*
X128840119Y-68508571D01*
X128887738Y-68603809D01*
X128887738Y-68841904D01*
X128840119Y-68937142D01*
X128792500Y-68984761D01*
X128697261Y-69032380D01*
X128411547Y-69032380D01*
X128316309Y-68984761D01*
X128268690Y-68937142D01*
X129982976Y-68032380D02*
X130649642Y-68032380D01*
X130221071Y-69032380D01*
X129411547Y-65492380D02*
X129506785Y-65492380D01*
X129602023Y-65540000D01*
X129649642Y-65587619D01*
X129697261Y-65682857D01*
X129744880Y-65873333D01*
X129744880Y-66111428D01*
X129697261Y-66301904D01*
X129649642Y-66397142D01*
X129602023Y-66444761D01*
X129506785Y-66492380D01*
X129411547Y-66492380D01*
X129316309Y-66444761D01*
X129268690Y-66397142D01*
X129221071Y-66301904D01*
X129173452Y-66111428D01*
X129173452Y-65873333D01*
X129221071Y-65682857D01*
X129268690Y-65587619D01*
X129316309Y-65540000D01*
X129411547Y-65492380D01*
X130030595Y-65492380D02*
X130363928Y-66492380D01*
X130697261Y-65492380D01*
X129125833Y-62952380D02*
X129744880Y-62952380D01*
X129411547Y-63333333D01*
X129554404Y-63333333D01*
X129649642Y-63380952D01*
X129697261Y-63428571D01*
X129744880Y-63523809D01*
X129744880Y-63761904D01*
X129697261Y-63857142D01*
X129649642Y-63904761D01*
X129554404Y-63952380D01*
X129268690Y-63952380D01*
X129173452Y-63904761D01*
X129125833Y-63857142D01*
X130030595Y-62952380D02*
X130363928Y-63952380D01*
X130697261Y-62952380D01*
X115100000Y-76500000D02*
X115300000Y-76500000D01*
X115100000Y-75300000D02*
X115300000Y-75300000D01*
X115100000Y-74000000D02*
X115300000Y-74000000D01*
X115100000Y-72800000D02*
X115300000Y-72800000D01*
X115100000Y-71500000D02*
X115300000Y-71500000D01*
X114478690Y-76052380D02*
X114573928Y-76052380D01*
X114669166Y-76100000D01*
X114716785Y-76147619D01*
X114764404Y-76242857D01*
X114812023Y-76433333D01*
X114812023Y-76671428D01*
X114764404Y-76861904D01*
X114716785Y-76957142D01*
X114669166Y-77004761D01*
X114573928Y-77052380D01*
X114478690Y-77052380D01*
X114383452Y-77004761D01*
X114335833Y-76957142D01*
X114288214Y-76861904D01*
X114240595Y-76671428D01*
X114240595Y-76433333D01*
X114288214Y-76242857D01*
X114335833Y-76147619D01*
X114383452Y-76100000D01*
X114478690Y-76052380D01*
X114812023Y-75752380D02*
X114240595Y-75752380D01*
X114526309Y-75752380D02*
X114526309Y-74752380D01*
X114431071Y-74895238D01*
X114335833Y-74990476D01*
X114240595Y-75038095D01*
X114240595Y-73547619D02*
X114288214Y-73500000D01*
X114383452Y-73452380D01*
X114621547Y-73452380D01*
X114716785Y-73500000D01*
X114764404Y-73547619D01*
X114812023Y-73642857D01*
X114812023Y-73738095D01*
X114764404Y-73880952D01*
X114192976Y-74452380D01*
X114812023Y-74452380D01*
X114192976Y-72152380D02*
X114812023Y-72152380D01*
X114478690Y-72533333D01*
X114621547Y-72533333D01*
X114716785Y-72580952D01*
X114764404Y-72628571D01*
X114812023Y-72723809D01*
X114812023Y-72961904D01*
X114764404Y-73057142D01*
X114716785Y-73104761D01*
X114621547Y-73152380D01*
X114335833Y-73152380D01*
X114240595Y-73104761D01*
X114192976Y-73057142D01*
X114716785Y-71185714D02*
X114716785Y-71852380D01*
X114478690Y-70804761D02*
X114240595Y-71519047D01*
X114859642Y-71519047D01*
X120926071Y-68402380D02*
X121021309Y-68402380D01*
X121116547Y-68450000D01*
X121164166Y-68497619D01*
X121211785Y-68592857D01*
X121259404Y-68783333D01*
X121259404Y-69021428D01*
X121211785Y-69211904D01*
X121164166Y-69307142D01*
X121116547Y-69354761D01*
X121021309Y-69402380D01*
X120926071Y-69402380D01*
X120830833Y-69354761D01*
X120783214Y-69307142D01*
X120735595Y-69211904D01*
X120687976Y-69021428D01*
X120687976Y-68783333D01*
X120735595Y-68592857D01*
X120783214Y-68497619D01*
X120830833Y-68450000D01*
X120926071Y-68402380D01*
X121545119Y-68402380D02*
X121878452Y-69402380D01*
X122211785Y-68402380D01*
X120735595Y-71052380D02*
X120735595Y-70052380D01*
X121211785Y-71052380D02*
X121211785Y-70052380D01*
X121783214Y-71052380D01*
X121783214Y-70052380D01*
X122116547Y-70052380D02*
X122687976Y-70052380D01*
X122402261Y-71052380D02*
X122402261Y-70052380D01*
X121307023Y-72607142D02*
X121259404Y-72654761D01*
X121116547Y-72702380D01*
X121021309Y-72702380D01*
X120878452Y-72654761D01*
X120783214Y-72559523D01*
X120735595Y-72464285D01*
X120687976Y-72273809D01*
X120687976Y-72130952D01*
X120735595Y-71940476D01*
X120783214Y-71845238D01*
X120878452Y-71750000D01*
X121021309Y-71702380D01*
X121116547Y-71702380D01*
X121259404Y-71750000D01*
X121307023Y-71797619D01*
X121735595Y-72702380D02*
X121735595Y-71702380D01*
X122307023Y-72702380D02*
X121878452Y-72130952D01*
X122307023Y-71702380D02*
X121735595Y-72273809D01*
X120687976Y-74304761D02*
X120830833Y-74352380D01*
X121068928Y-74352380D01*
X121164166Y-74304761D01*
X121211785Y-74257142D01*
X121259404Y-74161904D01*
X121259404Y-74066666D01*
X121211785Y-73971428D01*
X121164166Y-73923809D01*
X121068928Y-73876190D01*
X120878452Y-73828571D01*
X120783214Y-73780952D01*
X120735595Y-73733333D01*
X120687976Y-73638095D01*
X120687976Y-73542857D01*
X120735595Y-73447619D01*
X120783214Y-73400000D01*
X120878452Y-73352380D01*
X121116547Y-73352380D01*
X121259404Y-73400000D01*
X121687976Y-74352380D02*
X121687976Y-73352380D01*
X121926071Y-73352380D01*
X122068928Y-73400000D01*
X122164166Y-73495238D01*
X122211785Y-73590476D01*
X122259404Y-73780952D01*
X122259404Y-73923809D01*
X122211785Y-74114285D01*
X122164166Y-74209523D01*
X122068928Y-74304761D01*
X121926071Y-74352380D01*
X121687976Y-74352380D01*
X122687976Y-74352380D02*
X122687976Y-73352380D01*
X120687976Y-75954761D02*
X120830833Y-76002380D01*
X121068928Y-76002380D01*
X121164166Y-75954761D01*
X121211785Y-75907142D01*
X121259404Y-75811904D01*
X121259404Y-75716666D01*
X121211785Y-75621428D01*
X121164166Y-75573809D01*
X121068928Y-75526190D01*
X120878452Y-75478571D01*
X120783214Y-75430952D01*
X120735595Y-75383333D01*
X120687976Y-75288095D01*
X120687976Y-75192857D01*
X120735595Y-75097619D01*
X120783214Y-75050000D01*
X120878452Y-75002380D01*
X121116547Y-75002380D01*
X121259404Y-75050000D01*
X121687976Y-76002380D02*
X121687976Y-75002380D01*
X121926071Y-75002380D01*
X122068928Y-75050000D01*
X122164166Y-75145238D01*
X122211785Y-75240476D01*
X122259404Y-75430952D01*
X122259404Y-75573809D01*
X122211785Y-75764285D01*
X122164166Y-75859523D01*
X122068928Y-75954761D01*
X121926071Y-76002380D01*
X121687976Y-76002380D01*
X122878452Y-75002380D02*
X123068928Y-75002380D01*
X123164166Y-75050000D01*
X123259404Y-75145238D01*
X123307023Y-75335714D01*
X123307023Y-75669047D01*
X123259404Y-75859523D01*
X123164166Y-75954761D01*
X123068928Y-76002380D01*
X122878452Y-76002380D01*
X122783214Y-75954761D01*
X122687976Y-75859523D01*
X122640357Y-75669047D01*
X122640357Y-75335714D01*
X122687976Y-75145238D01*
X122783214Y-75050000D01*
X122878452Y-75002380D01*
X121307023Y-77557142D02*
X121259404Y-77604761D01*
X121116547Y-77652380D01*
X121021309Y-77652380D01*
X120878452Y-77604761D01*
X120783214Y-77509523D01*
X120735595Y-77414285D01*
X120687976Y-77223809D01*
X120687976Y-77080952D01*
X120735595Y-76890476D01*
X120783214Y-76795238D01*
X120878452Y-76700000D01*
X121021309Y-76652380D01*
X121116547Y-76652380D01*
X121259404Y-76700000D01*
X121307023Y-76747619D01*
X121687976Y-77604761D02*
X121830833Y-77652380D01*
X122068928Y-77652380D01*
X122164166Y-77604761D01*
X122211785Y-77557142D01*
X122259404Y-77461904D01*
X122259404Y-77366666D01*
X122211785Y-77271428D01*
X122164166Y-77223809D01*
X122068928Y-77176190D01*
X121878452Y-77128571D01*
X121783214Y-77080952D01*
X121735595Y-77033333D01*
X121687976Y-76938095D01*
X121687976Y-76842857D01*
X121735595Y-76747619D01*
X121783214Y-76700000D01*
X121878452Y-76652380D01*
X122116547Y-76652380D01*
X122259404Y-76700000D01*
X120640357Y-78302380D02*
X121259404Y-78302380D01*
X120926071Y-78683333D01*
X121068928Y-78683333D01*
X121164166Y-78730952D01*
X121211785Y-78778571D01*
X121259404Y-78873809D01*
X121259404Y-79111904D01*
X121211785Y-79207142D01*
X121164166Y-79254761D01*
X121068928Y-79302380D01*
X120783214Y-79302380D01*
X120687976Y-79254761D01*
X120640357Y-79207142D01*
X121545119Y-78302380D02*
X121878452Y-79302380D01*
X122211785Y-78302380D01*
X111760000Y-64316000D02*
X112395000Y-64316000D01*
X111760000Y-72771000D02*
X112395000Y-72771000D01*
X113315714Y-78303380D02*
X112744285Y-78303380D01*
X113030000Y-78303380D02*
X113030000Y-77303380D01*
X112934761Y-77446238D01*
X112839523Y-77541476D01*
X112744285Y-77589095D01*
X112696666Y-72223380D02*
X113315714Y-72223380D01*
X112982380Y-72604333D01*
X113125238Y-72604333D01*
X113220476Y-72651952D01*
X113268095Y-72699571D01*
X113315714Y-72794809D01*
X113315714Y-73032904D01*
X113268095Y-73128142D01*
X113220476Y-73175761D01*
X113125238Y-73223380D01*
X112839523Y-73223380D01*
X112744285Y-73175761D01*
X112696666Y-73128142D01*
X112395000Y-66856000D02*
X111760000Y-66856000D01*
X111760000Y-77851000D02*
X112395000Y-77851000D01*
X113268095Y-63841380D02*
X112791904Y-63841380D01*
X112744285Y-64317571D01*
X112791904Y-64269952D01*
X112887142Y-64222333D01*
X113125238Y-64222333D01*
X113220476Y-64269952D01*
X113268095Y-64317571D01*
X113315714Y-64412809D01*
X113315714Y-64650904D01*
X113268095Y-64746142D01*
X113220476Y-64793761D01*
X113125238Y-64841380D01*
X112887142Y-64841380D01*
X112791904Y-64793761D01*
X112744285Y-64746142D01*
X112744285Y-74858619D02*
X112791904Y-74811000D01*
X112887142Y-74763380D01*
X113125238Y-74763380D01*
X113220476Y-74811000D01*
X113268095Y-74858619D01*
X113315714Y-74953857D01*
X113315714Y-75049095D01*
X113268095Y-75191952D01*
X112696666Y-75763380D01*
X113315714Y-75763380D01*
X112982380Y-79843380D02*
X113077619Y-79843380D01*
X113172857Y-79891000D01*
X113220476Y-79938619D01*
X113268095Y-80033857D01*
X113315714Y-80224333D01*
X113315714Y-80462428D01*
X113268095Y-80652904D01*
X113220476Y-80748142D01*
X113172857Y-80795761D01*
X113077619Y-80843380D01*
X112982380Y-80843380D01*
X112887142Y-80795761D01*
X112839523Y-80748142D01*
X112791904Y-80652904D01*
X112744285Y-80462428D01*
X112744285Y-80224333D01*
X112791904Y-80033857D01*
X112839523Y-79938619D01*
X112887142Y-79891000D01*
X112982380Y-79843380D01*
X112395000Y-80391000D02*
X111760000Y-80391000D01*
X113220476Y-66714714D02*
X113220476Y-67381380D01*
X112982380Y-66333761D02*
X112744285Y-67048047D01*
X113363333Y-67048047D01*
X112395000Y-61776000D02*
X111760000Y-61776000D01*
X112696666Y-58761380D02*
X113363333Y-58761380D01*
X112934761Y-59761380D01*
X113220476Y-61301380D02*
X113030000Y-61301380D01*
X112934761Y-61349000D01*
X112887142Y-61396619D01*
X112791904Y-61539476D01*
X112744285Y-61729952D01*
X112744285Y-62110904D01*
X112791904Y-62206142D01*
X112839523Y-62253761D01*
X112934761Y-62301380D01*
X113125238Y-62301380D01*
X113220476Y-62253761D01*
X113268095Y-62206142D01*
X113315714Y-62110904D01*
X113315714Y-61872809D01*
X113268095Y-61777571D01*
X113220476Y-61729952D01*
X113125238Y-61682333D01*
X112934761Y-61682333D01*
X112839523Y-61729952D01*
X112791904Y-61777571D01*
X112744285Y-61872809D01*
X112395000Y-75311000D02*
X111760000Y-75311000D01*
X111760000Y-59236000D02*
X112395000Y-59236000D01*
X104140000Y-77851000D02*
X104775000Y-77851000D01*
X104775000Y-80391000D02*
X104140000Y-80391000D01*
X104775000Y-75311000D02*
X104140000Y-75311000D01*
X104140000Y-72771000D02*
X104775000Y-72771000D01*
X104775000Y-66856000D02*
X104140000Y-66856000D01*
X104140000Y-64316000D02*
X104775000Y-64316000D01*
X104775000Y-61776000D02*
X104140000Y-61776000D01*
X104140000Y-59236000D02*
X104775000Y-59236000D01*
X107900000Y-70500000D02*
X107900000Y-71500000D01*
X107900000Y-69100000D02*
X107900000Y-68200000D01*
X100500000Y-70500000D02*
X100500000Y-71500000D01*
X100500000Y-69100000D02*
X100500000Y-68200000D01*
X107188095Y-69350000D02*
X107092857Y-69302380D01*
X106950000Y-69302380D01*
X106807142Y-69350000D01*
X106711904Y-69445238D01*
X106664285Y-69540476D01*
X106616666Y-69730952D01*
X106616666Y-69873809D01*
X106664285Y-70064285D01*
X106711904Y-70159523D01*
X106807142Y-70254761D01*
X106950000Y-70302380D01*
X107045238Y-70302380D01*
X107188095Y-70254761D01*
X107235714Y-70207142D01*
X107235714Y-69873809D01*
X107045238Y-69873809D01*
X107664285Y-70302380D02*
X107664285Y-69302380D01*
X108235714Y-70302380D01*
X108235714Y-69302380D01*
X108711904Y-70302380D02*
X108711904Y-69302380D01*
X108950000Y-69302380D01*
X109092857Y-69350000D01*
X109188095Y-69445238D01*
X109235714Y-69540476D01*
X109283333Y-69730952D01*
X109283333Y-69873809D01*
X109235714Y-70064285D01*
X109188095Y-70159523D01*
X109092857Y-70254761D01*
X108950000Y-70302380D01*
X108711904Y-70302380D01*
X99768095Y-69350000D02*
X99672857Y-69302380D01*
X99530000Y-69302380D01*
X99387142Y-69350000D01*
X99291904Y-69445238D01*
X99244285Y-69540476D01*
X99196666Y-69730952D01*
X99196666Y-69873809D01*
X99244285Y-70064285D01*
X99291904Y-70159523D01*
X99387142Y-70254761D01*
X99530000Y-70302380D01*
X99625238Y-70302380D01*
X99768095Y-70254761D01*
X99815714Y-70207142D01*
X99815714Y-69873809D01*
X99625238Y-69873809D01*
X100244285Y-70302380D02*
X100244285Y-69302380D01*
X100815714Y-70302380D01*
X100815714Y-69302380D01*
X101291904Y-70302380D02*
X101291904Y-69302380D01*
X101530000Y-69302380D01*
X101672857Y-69350000D01*
X101768095Y-69445238D01*
X101815714Y-69540476D01*
X101863333Y-69730952D01*
X101863333Y-69873809D01*
X101815714Y-70064285D01*
X101768095Y-70159523D01*
X101672857Y-70254761D01*
X101530000Y-70302380D01*
X101291904Y-70302380D01*
X105362380Y-79843380D02*
X105457619Y-79843380D01*
X105552857Y-79891000D01*
X105600476Y-79938619D01*
X105648095Y-80033857D01*
X105695714Y-80224333D01*
X105695714Y-80462428D01*
X105648095Y-80652904D01*
X105600476Y-80748142D01*
X105552857Y-80795761D01*
X105457619Y-80843380D01*
X105362380Y-80843380D01*
X105267142Y-80795761D01*
X105219523Y-80748142D01*
X105171904Y-80652904D01*
X105124285Y-80462428D01*
X105124285Y-80224333D01*
X105171904Y-80033857D01*
X105219523Y-79938619D01*
X105267142Y-79891000D01*
X105362380Y-79843380D01*
X105695714Y-78303380D02*
X105124285Y-78303380D01*
X105410000Y-78303380D02*
X105410000Y-77303380D01*
X105314761Y-77446238D01*
X105219523Y-77541476D01*
X105124285Y-77589095D01*
X105124285Y-74858619D02*
X105171904Y-74811000D01*
X105267142Y-74763380D01*
X105505238Y-74763380D01*
X105600476Y-74811000D01*
X105648095Y-74858619D01*
X105695714Y-74953857D01*
X105695714Y-75049095D01*
X105648095Y-75191952D01*
X105076666Y-75763380D01*
X105695714Y-75763380D01*
X105076666Y-72223380D02*
X105695714Y-72223380D01*
X105362380Y-72604333D01*
X105505238Y-72604333D01*
X105600476Y-72651952D01*
X105648095Y-72699571D01*
X105695714Y-72794809D01*
X105695714Y-73032904D01*
X105648095Y-73128142D01*
X105600476Y-73175761D01*
X105505238Y-73223380D01*
X105219523Y-73223380D01*
X105124285Y-73175761D01*
X105076666Y-73128142D01*
X105600476Y-66714714D02*
X105600476Y-67381380D01*
X105362380Y-66333761D02*
X105124285Y-67048047D01*
X105743333Y-67048047D01*
X105648095Y-63841380D02*
X105171904Y-63841380D01*
X105124285Y-64317571D01*
X105171904Y-64269952D01*
X105267142Y-64222333D01*
X105505238Y-64222333D01*
X105600476Y-64269952D01*
X105648095Y-64317571D01*
X105695714Y-64412809D01*
X105695714Y-64650904D01*
X105648095Y-64746142D01*
X105600476Y-64793761D01*
X105505238Y-64841380D01*
X105267142Y-64841380D01*
X105171904Y-64793761D01*
X105124285Y-64746142D01*
X105600476Y-61301380D02*
X105410000Y-61301380D01*
X105314761Y-61349000D01*
X105267142Y-61396619D01*
X105171904Y-61539476D01*
X105124285Y-61729952D01*
X105124285Y-62110904D01*
X105171904Y-62206142D01*
X105219523Y-62253761D01*
X105314761Y-62301380D01*
X105505238Y-62301380D01*
X105600476Y-62253761D01*
X105648095Y-62206142D01*
X105695714Y-62110904D01*
X105695714Y-61872809D01*
X105648095Y-61777571D01*
X105600476Y-61729952D01*
X105505238Y-61682333D01*
X105314761Y-61682333D01*
X105219523Y-61729952D01*
X105171904Y-61777571D01*
X105124285Y-61872809D01*
X105076666Y-58761380D02*
X105743333Y-58761380D01*
X105314761Y-59761380D01*
%TO.C,J7*%
X122200000Y-66500000D02*
X122200000Y-67300000D01*
X122200000Y-67300000D02*
X125700000Y-67300000D01*
X125700000Y-67300000D02*
X125700000Y-60700000D01*
X125700000Y-60700000D02*
X122200000Y-60700000D01*
X122200000Y-61500000D02*
X122200000Y-60700000D01*
%TO.C,J6*%
X111760000Y-58039000D02*
X111760000Y-68199000D01*
X111760000Y-68199000D02*
X106680000Y-68199000D01*
X106680000Y-68199000D02*
X106680000Y-64389000D01*
X106680000Y-61849000D02*
X106680000Y-58039000D01*
X106680000Y-58039000D02*
X111760000Y-58039000D01*
%TO.C,J5*%
X99060000Y-58039000D02*
X104140000Y-58039000D01*
X99060000Y-61849000D02*
X99060000Y-58039000D01*
X99060000Y-68199000D02*
X99060000Y-64389000D01*
X104140000Y-68199000D02*
X99060000Y-68199000D01*
X104140000Y-58039000D02*
X104140000Y-68199000D01*
%TO.C,J4*%
X131380000Y-77470000D02*
X131380000Y-62230000D01*
X131380000Y-62230000D02*
X136460000Y-62230000D01*
X136460000Y-62230000D02*
X136460000Y-68580000D01*
X136460000Y-71120000D02*
X136460000Y-77470000D01*
X136460000Y-77470000D02*
X131380000Y-77470000D01*
%TO.C,J3*%
X116200000Y-78375000D02*
X116200000Y-79175000D01*
X116200000Y-79175000D02*
X119700000Y-79175000D01*
X119700000Y-79175000D02*
X119700000Y-68825000D01*
X119700000Y-68825000D02*
X116200000Y-68825000D01*
X116200000Y-69625000D02*
X116200000Y-68825000D01*
%TO.C,J2*%
X111760000Y-71501000D02*
X111760000Y-81661000D01*
X111760000Y-81661000D02*
X106680000Y-81661000D01*
X106680000Y-81661000D02*
X106680000Y-77851000D01*
X106680000Y-75311000D02*
X106680000Y-71501000D01*
X106680000Y-71501000D02*
X111760000Y-71501000D01*
%TO.C,J1*%
X104140000Y-71501000D02*
X104140000Y-81661000D01*
X104140000Y-81661000D02*
X99060000Y-81661000D01*
X99060000Y-81661000D02*
X99060000Y-77851000D01*
X99060000Y-75311000D02*
X99060000Y-71501000D01*
X99060000Y-71501000D02*
X104140000Y-71501000D01*
%TD*%
%LPC*%
D11*
%TO.C,J7*%
X122000000Y-62125000D03*
X122000000Y-63375000D03*
X122000000Y-64625000D03*
X122000000Y-65875000D03*
D12*
X124750000Y-59575000D03*
X124750000Y-68425000D03*
%TD*%
D13*
%TO.C,J6*%
X110490000Y-66929000D03*
X107950000Y-66929000D03*
X110490000Y-64389000D03*
X107950000Y-64389000D03*
X110490000Y-61849000D03*
X107950000Y-61849000D03*
X110490000Y-59309000D03*
X107950000Y-59309000D03*
%TD*%
%TO.C,J5*%
X100330000Y-59309000D03*
X102870000Y-59309000D03*
X100330000Y-61849000D03*
X102870000Y-61849000D03*
X100330000Y-64389000D03*
X102870000Y-64389000D03*
X100330000Y-66929000D03*
X102870000Y-66929000D03*
%TD*%
%TO.C,J4*%
X132650000Y-63500000D03*
X135190000Y-63500000D03*
X132650000Y-66040000D03*
X135190000Y-66040000D03*
X132650000Y-68580000D03*
X135190000Y-68580000D03*
X132650000Y-71120000D03*
X135190000Y-71120000D03*
X132650000Y-73660000D03*
X135190000Y-73660000D03*
X132650000Y-76200000D03*
X135190000Y-76200000D03*
%TD*%
D11*
%TO.C,J3*%
X116000000Y-70250000D03*
X116000000Y-71500000D03*
X116000000Y-72750000D03*
X116000000Y-74000000D03*
X116000000Y-75250000D03*
X116000000Y-76500000D03*
X116000000Y-77750000D03*
D12*
X118750000Y-67700000D03*
X118750000Y-80300000D03*
%TD*%
D13*
%TO.C,J2*%
X110490000Y-80391000D03*
X107950000Y-80391000D03*
X110490000Y-77851000D03*
X107950000Y-77851000D03*
X110490000Y-75311000D03*
X107950000Y-75311000D03*
X110490000Y-72771000D03*
X107950000Y-72771000D03*
%TD*%
%TO.C,J1*%
X102870000Y-80391000D03*
X100330000Y-80391000D03*
X102870000Y-77851000D03*
X100330000Y-77851000D03*
X102870000Y-75311000D03*
X100330000Y-75311000D03*
X102870000Y-72771000D03*
X100330000Y-72771000D03*
%TD*%
M02*
