%TF.GenerationSoftware,KiCad,Pcbnew,5.1.6-c6e7f7d~86~ubuntu18.04.1*%
%TF.CreationDate,2020-07-28T10:34:38+01:00*%
%TF.ProjectId,pmod_picoblade,706d6f64-5f70-4696-936f-626c6164652e,rev?*%
%TF.SameCoordinates,Original*%
%TF.FileFunction,Soldermask,Top*%
%TF.FilePolarity,Negative*%
%FSLAX46Y46*%
G04 Gerber Fmt 4.6, Leading zero omitted, Abs format (unit mm)*
G04 Created by KiCad (PCBNEW 5.1.6-c6e7f7d~86~ubuntu18.04.1) date 2020-07-28 10:34:38*
%MOMM*%
%LPD*%
G01*
G04 APERTURE LIST*
%ADD10R,1.400000X0.900000*%
%ADD11R,3.100000X2.200000*%
%ADD12C,2.000000*%
G04 APERTURE END LIST*
D10*
%TO.C,J7*%
X122000000Y-62125000D03*
X122000000Y-63375000D03*
X122000000Y-64625000D03*
X122000000Y-65875000D03*
D11*
X124750000Y-59575000D03*
X124750000Y-68425000D03*
%TD*%
D12*
%TO.C,J6*%
X110490000Y-66929000D03*
X107950000Y-66929000D03*
X110490000Y-64389000D03*
X107950000Y-64389000D03*
X110490000Y-61849000D03*
X107950000Y-61849000D03*
X110490000Y-59309000D03*
X107950000Y-59309000D03*
%TD*%
%TO.C,J5*%
X100330000Y-59309000D03*
X102870000Y-59309000D03*
X100330000Y-61849000D03*
X102870000Y-61849000D03*
X100330000Y-64389000D03*
X102870000Y-64389000D03*
X100330000Y-66929000D03*
X102870000Y-66929000D03*
%TD*%
%TO.C,J4*%
X132650000Y-63500000D03*
X135190000Y-63500000D03*
X132650000Y-66040000D03*
X135190000Y-66040000D03*
X132650000Y-68580000D03*
X135190000Y-68580000D03*
X132650000Y-71120000D03*
X135190000Y-71120000D03*
X132650000Y-73660000D03*
X135190000Y-73660000D03*
X132650000Y-76200000D03*
X135190000Y-76200000D03*
%TD*%
D10*
%TO.C,J3*%
X116000000Y-70250000D03*
X116000000Y-71500000D03*
X116000000Y-72750000D03*
X116000000Y-74000000D03*
X116000000Y-75250000D03*
X116000000Y-76500000D03*
X116000000Y-77750000D03*
D11*
X118750000Y-67700000D03*
X118750000Y-80300000D03*
%TD*%
D12*
%TO.C,J2*%
X110490000Y-80391000D03*
X107950000Y-80391000D03*
X110490000Y-77851000D03*
X107950000Y-77851000D03*
X110490000Y-75311000D03*
X107950000Y-75311000D03*
X110490000Y-72771000D03*
X107950000Y-72771000D03*
%TD*%
%TO.C,J1*%
X102870000Y-80391000D03*
X100330000Y-80391000D03*
X102870000Y-77851000D03*
X100330000Y-77851000D03*
X102870000Y-75311000D03*
X100330000Y-75311000D03*
X102870000Y-72771000D03*
X100330000Y-72771000D03*
%TD*%
M02*
