%TF.GenerationSoftware,KiCad,Pcbnew,5.1.6-c6e7f7d~86~ubuntu18.04.1*%
%TF.CreationDate,2020-07-28T03:10:59+01:00*%
%TF.ProjectId,pmod_picoblade,706d6f64-5f70-4696-936f-626c6164652e,rev?*%
%TF.SameCoordinates,Original*%
%TF.FileFunction,Copper,L1,Top*%
%TF.FilePolarity,Positive*%
%FSLAX46Y46*%
G04 Gerber Fmt 4.6, Leading zero omitted, Abs format (unit mm)*
G04 Created by KiCad (PCBNEW 5.1.6-c6e7f7d~86~ubuntu18.04.1) date 2020-07-28 03:10:59*
%MOMM*%
%LPD*%
G01*
G04 APERTURE LIST*
%TA.AperFunction,SMDPad,CuDef*%
%ADD10R,1.300000X0.800000*%
%TD*%
%TA.AperFunction,SMDPad,CuDef*%
%ADD11R,3.000000X2.100000*%
%TD*%
%TA.AperFunction,ComponentPad*%
%ADD12C,1.900000*%
%TD*%
%TA.AperFunction,ViaPad*%
%ADD13C,0.800000*%
%TD*%
%TA.AperFunction,Conductor*%
%ADD14C,0.200000*%
%TD*%
%TA.AperFunction,Conductor*%
%ADD15C,0.400000*%
%TD*%
G04 APERTURE END LIST*
D10*
%TO.P,J7,4*%
%TO.N,GND*%
X122000000Y-62125000D03*
%TO.P,J7,3*%
%TO.N,/PMOD6*%
X122000000Y-63375000D03*
%TO.P,J7,2*%
%TO.N,/PMOD5*%
X122000000Y-64625000D03*
%TO.P,J7,1*%
%TO.N,N/C*%
X122000000Y-65875000D03*
D11*
%TO.P,J7,*%
%TO.N,*%
X124750000Y-59575000D03*
X124750000Y-68425000D03*
%TD*%
D12*
%TO.P,J6,8*%
%TO.N,/PMOD4*%
X110490000Y-66929000D03*
%TO.P,J6,7*%
%TO.N,GND*%
X107950000Y-66929000D03*
%TO.P,J6,6*%
%TO.N,/PMOD5*%
X110490000Y-64389000D03*
%TO.P,J6,5*%
%TO.N,GND*%
X107950000Y-64389000D03*
%TO.P,J6,4*%
%TO.N,/PMOD6*%
X110490000Y-61849000D03*
%TO.P,J6,3*%
%TO.N,GND*%
X107950000Y-61849000D03*
%TO.P,J6,2*%
%TO.N,/PMOD7*%
X110490000Y-59309000D03*
%TO.P,J6,1*%
%TO.N,GND*%
X107950000Y-59309000D03*
%TD*%
%TO.P,J5,1*%
%TO.N,GND*%
X100330000Y-59309000D03*
%TO.P,J5,2*%
%TO.N,/PMOD7*%
X102870000Y-59309000D03*
%TO.P,J5,3*%
%TO.N,GND*%
X100330000Y-61849000D03*
%TO.P,J5,4*%
%TO.N,/PMOD6*%
X102870000Y-61849000D03*
%TO.P,J5,5*%
%TO.N,GND*%
X100330000Y-64389000D03*
%TO.P,J5,6*%
%TO.N,/PMOD5*%
X102870000Y-64389000D03*
%TO.P,J5,7*%
%TO.N,GND*%
X100330000Y-66929000D03*
%TO.P,J5,8*%
%TO.N,/PMOD4*%
X102870000Y-66929000D03*
%TD*%
%TO.P,J4,12*%
%TO.N,N/C*%
X132650000Y-63500000D03*
%TO.P,J4,11*%
X135190000Y-63500000D03*
%TO.P,J4,10*%
%TO.N,GND*%
X132650000Y-66040000D03*
%TO.P,J4,9*%
X135190000Y-66040000D03*
%TO.P,J4,8*%
%TO.N,/PMOD3*%
X132650000Y-68580000D03*
%TO.P,J4,7*%
%TO.N,/PMOD7*%
X135190000Y-68580000D03*
%TO.P,J4,6*%
%TO.N,/PMOD2*%
X132650000Y-71120000D03*
%TO.P,J4,5*%
%TO.N,/PMOD6*%
X135190000Y-71120000D03*
%TO.P,J4,4*%
%TO.N,/PMOD1*%
X132650000Y-73660000D03*
%TO.P,J4,3*%
%TO.N,/PMOD5*%
X135190000Y-73660000D03*
%TO.P,J4,2*%
%TO.N,/PMOD0*%
X132650000Y-76200000D03*
%TO.P,J4,1*%
%TO.N,/PMOD4*%
X135190000Y-76200000D03*
%TD*%
D10*
%TO.P,J3,7*%
%TO.N,GND*%
X116000000Y-70250000D03*
%TO.P,J3,6*%
%TO.N,/PMOD4*%
X116000000Y-71500000D03*
%TO.P,J3,5*%
%TO.N,/PMOD3*%
X116000000Y-72750000D03*
%TO.P,J3,4*%
%TO.N,/PMOD2*%
X116000000Y-74000000D03*
%TO.P,J3,3*%
%TO.N,/PMOD1*%
X116000000Y-75250000D03*
%TO.P,J3,2*%
%TO.N,/PMOD0*%
X116000000Y-76500000D03*
%TO.P,J3,1*%
%TO.N,N/C*%
X116000000Y-77750000D03*
D11*
%TO.P,J3,*%
%TO.N,*%
X118750000Y-67700000D03*
X118750000Y-80300000D03*
%TD*%
D12*
%TO.P,J2,8*%
%TO.N,/PMOD0*%
X110490000Y-80391000D03*
%TO.P,J2,7*%
%TO.N,GND*%
X107950000Y-80391000D03*
%TO.P,J2,6*%
%TO.N,/PMOD1*%
X110490000Y-77851000D03*
%TO.P,J2,5*%
%TO.N,GND*%
X107950000Y-77851000D03*
%TO.P,J2,4*%
%TO.N,/PMOD2*%
X110490000Y-75311000D03*
%TO.P,J2,3*%
%TO.N,GND*%
X107950000Y-75311000D03*
%TO.P,J2,2*%
%TO.N,/PMOD3*%
X110490000Y-72771000D03*
%TO.P,J2,1*%
%TO.N,GND*%
X107950000Y-72771000D03*
%TD*%
%TO.P,J1,8*%
%TO.N,/PMOD0*%
X102870000Y-80391000D03*
%TO.P,J1,7*%
%TO.N,GND*%
X100330000Y-80391000D03*
%TO.P,J1,6*%
%TO.N,/PMOD1*%
X102870000Y-77851000D03*
%TO.P,J1,5*%
%TO.N,GND*%
X100330000Y-77851000D03*
%TO.P,J1,4*%
%TO.N,/PMOD2*%
X102870000Y-75311000D03*
%TO.P,J1,3*%
%TO.N,GND*%
X100330000Y-75311000D03*
%TO.P,J1,2*%
%TO.N,/PMOD3*%
X102870000Y-72771000D03*
%TO.P,J1,1*%
%TO.N,GND*%
X100330000Y-72771000D03*
%TD*%
D13*
%TO.N,GND*%
X120500000Y-62200000D03*
X123600000Y-62200000D03*
X114700000Y-70200000D03*
X117400000Y-70200000D03*
%TO.N,/PMOD4*%
X130900000Y-68600000D03*
%TO.N,/PMOD6*%
X130100000Y-67500000D03*
%TO.N,/PMOD5*%
X129500000Y-68700000D03*
%TD*%
D14*
%TO.N,/PMOD3*%
X109239999Y-71520999D02*
X110490000Y-72771000D01*
X102870000Y-72771000D02*
X104120001Y-71520999D01*
X104120001Y-71520999D02*
X109239999Y-71520999D01*
D15*
X115979000Y-72771000D02*
X116000000Y-72750000D01*
X110490000Y-72771000D02*
X115979000Y-72771000D01*
X128480000Y-72750000D02*
X132650000Y-68580000D01*
X116000000Y-72750000D02*
X128480000Y-72750000D01*
%TO.N,GND*%
X122000000Y-62125000D02*
X120575000Y-62125000D01*
X120575000Y-62125000D02*
X120500000Y-62200000D01*
X122000000Y-62125000D02*
X123525000Y-62125000D01*
X123525000Y-62125000D02*
X123600000Y-62200000D01*
X116000000Y-70250000D02*
X114750000Y-70250000D01*
X114750000Y-70250000D02*
X114700000Y-70200000D01*
X116000000Y-70250000D02*
X117350000Y-70250000D01*
X117350000Y-70250000D02*
X117400000Y-70200000D01*
D14*
%TO.N,/PMOD2*%
X109239999Y-74060999D02*
X110490000Y-75311000D01*
X102870000Y-75311000D02*
X104120001Y-74060999D01*
X104120001Y-74060999D02*
X109239999Y-74060999D01*
D15*
X111801000Y-74000000D02*
X116000000Y-74000000D01*
X110490000Y-75311000D02*
X111801000Y-74000000D01*
X129770000Y-74000000D02*
X132650000Y-71120000D01*
X116000000Y-74000000D02*
X129770000Y-74000000D01*
D14*
%TO.N,/PMOD1*%
X109200001Y-76561001D02*
X110490000Y-77851000D01*
X102870000Y-77851000D02*
X104159999Y-76561001D01*
X104159999Y-76561001D02*
X109200001Y-76561001D01*
D15*
X113091000Y-75250000D02*
X116000000Y-75250000D01*
X110490000Y-77851000D02*
X113091000Y-75250000D01*
X131060000Y-75250000D02*
X132650000Y-73660000D01*
X116000000Y-75250000D02*
X131060000Y-75250000D01*
D14*
%TO.N,/PMOD0*%
X109200001Y-79101001D02*
X110490000Y-80391000D01*
X102870000Y-80391000D02*
X104159999Y-79101001D01*
X104159999Y-79101001D02*
X109200001Y-79101001D01*
D15*
X114381000Y-76500000D02*
X116000000Y-76500000D01*
X110490000Y-80391000D02*
X114381000Y-76500000D01*
X132350000Y-76500000D02*
X132650000Y-76200000D01*
X116000000Y-76500000D02*
X132350000Y-76500000D01*
D14*
%TO.N,/PMOD4*%
X109239999Y-68179001D02*
X110490000Y-66929000D01*
X102870000Y-66929000D02*
X104120001Y-68179001D01*
X104120001Y-68179001D02*
X109239999Y-68179001D01*
D15*
X116000000Y-71500000D02*
X111600000Y-71500000D01*
X110490000Y-70390000D02*
X110490000Y-66929000D01*
X111600000Y-71500000D02*
X110490000Y-70390000D01*
X128000000Y-71500000D02*
X116000000Y-71500000D01*
X130900000Y-68600000D02*
X128000000Y-71500000D01*
D14*
%TO.N,/PMOD7*%
X109239999Y-60559001D02*
X110490000Y-59309000D01*
X102870000Y-59309000D02*
X104120001Y-60559001D01*
X104120001Y-60559001D02*
X109239999Y-60559001D01*
D15*
X136500000Y-61200000D02*
X112381000Y-61200000D01*
X137100000Y-61800000D02*
X136500000Y-61200000D01*
X137100000Y-68200000D02*
X137100000Y-61800000D01*
X135190000Y-68580000D02*
X136720000Y-68580000D01*
X112381000Y-61200000D02*
X110490000Y-59309000D01*
X136720000Y-68580000D02*
X137100000Y-68200000D01*
D14*
%TO.N,/PMOD6*%
X109239999Y-63099001D02*
X110490000Y-61849000D01*
X102870000Y-61849000D02*
X104120001Y-63099001D01*
X104120001Y-63099001D02*
X109239999Y-63099001D01*
D15*
X112016000Y-63375000D02*
X110490000Y-61849000D01*
X122000000Y-63375000D02*
X112016000Y-63375000D01*
X125975000Y-63375000D02*
X122000000Y-63375000D01*
X130100000Y-67500000D02*
X125975000Y-63375000D01*
D14*
%TO.N,/PMOD5*%
X109239999Y-65639001D02*
X110490000Y-64389000D01*
X102870000Y-64389000D02*
X104120001Y-65639001D01*
X104120001Y-65639001D02*
X109239999Y-65639001D01*
D15*
X110726000Y-64625000D02*
X110490000Y-64389000D01*
X122000000Y-64625000D02*
X110726000Y-64625000D01*
X125425000Y-64625000D02*
X129500000Y-68700000D01*
X122000000Y-64625000D02*
X125425000Y-64625000D01*
%TD*%
M02*
