%TF.GenerationSoftware,KiCad,Pcbnew,5.1.6-c6e7f7d~86~ubuntu18.04.1*%
%TF.CreationDate,2020-07-28T10:34:38+01:00*%
%TF.ProjectId,pmod_picoblade,706d6f64-5f70-4696-936f-626c6164652e,rev?*%
%TF.SameCoordinates,Original*%
%TF.FileFunction,Copper,L2,Bot*%
%TF.FilePolarity,Positive*%
%FSLAX46Y46*%
G04 Gerber Fmt 4.6, Leading zero omitted, Abs format (unit mm)*
G04 Created by KiCad (PCBNEW 5.1.6-c6e7f7d~86~ubuntu18.04.1) date 2020-07-28 10:34:38*
%MOMM*%
%LPD*%
G01*
G04 APERTURE LIST*
%TA.AperFunction,ComponentPad*%
%ADD10C,1.900000*%
%TD*%
%TA.AperFunction,ViaPad*%
%ADD11C,0.800000*%
%TD*%
%TA.AperFunction,Conductor*%
%ADD12C,0.400000*%
%TD*%
%TA.AperFunction,Conductor*%
%ADD13C,0.300000*%
%TD*%
G04 APERTURE END LIST*
D10*
%TO.P,J6,8*%
%TO.N,/PMOD4*%
X110490000Y-66929000D03*
%TO.P,J6,7*%
%TO.N,GND*%
X107950000Y-66929000D03*
%TO.P,J6,6*%
%TO.N,/PMOD5*%
X110490000Y-64389000D03*
%TO.P,J6,5*%
%TO.N,GND*%
X107950000Y-64389000D03*
%TO.P,J6,4*%
%TO.N,/PMOD6*%
X110490000Y-61849000D03*
%TO.P,J6,3*%
%TO.N,GND*%
X107950000Y-61849000D03*
%TO.P,J6,2*%
%TO.N,/PMOD7*%
X110490000Y-59309000D03*
%TO.P,J6,1*%
%TO.N,GND*%
X107950000Y-59309000D03*
%TD*%
%TO.P,J5,1*%
%TO.N,GND*%
X100330000Y-59309000D03*
%TO.P,J5,2*%
%TO.N,/PMOD7*%
X102870000Y-59309000D03*
%TO.P,J5,3*%
%TO.N,GND*%
X100330000Y-61849000D03*
%TO.P,J5,4*%
%TO.N,/PMOD6*%
X102870000Y-61849000D03*
%TO.P,J5,5*%
%TO.N,GND*%
X100330000Y-64389000D03*
%TO.P,J5,6*%
%TO.N,/PMOD5*%
X102870000Y-64389000D03*
%TO.P,J5,7*%
%TO.N,GND*%
X100330000Y-66929000D03*
%TO.P,J5,8*%
%TO.N,/PMOD4*%
X102870000Y-66929000D03*
%TD*%
%TO.P,J4,12*%
%TO.N,N/C*%
X132650000Y-63500000D03*
%TO.P,J4,11*%
X135190000Y-63500000D03*
%TO.P,J4,10*%
%TO.N,GND*%
X132650000Y-66040000D03*
%TO.P,J4,9*%
X135190000Y-66040000D03*
%TO.P,J4,8*%
%TO.N,/PMOD3*%
X132650000Y-68580000D03*
%TO.P,J4,7*%
%TO.N,/PMOD7*%
X135190000Y-68580000D03*
%TO.P,J4,6*%
%TO.N,/PMOD2*%
X132650000Y-71120000D03*
%TO.P,J4,5*%
%TO.N,/PMOD6*%
X135190000Y-71120000D03*
%TO.P,J4,4*%
%TO.N,/PMOD1*%
X132650000Y-73660000D03*
%TO.P,J4,3*%
%TO.N,/PMOD5*%
X135190000Y-73660000D03*
%TO.P,J4,2*%
%TO.N,/PMOD0*%
X132650000Y-76200000D03*
%TO.P,J4,1*%
%TO.N,/PMOD4*%
X135190000Y-76200000D03*
%TD*%
%TO.P,J2,8*%
%TO.N,/PMOD0*%
X110490000Y-80391000D03*
%TO.P,J2,7*%
%TO.N,GND*%
X107950000Y-80391000D03*
%TO.P,J2,6*%
%TO.N,/PMOD1*%
X110490000Y-77851000D03*
%TO.P,J2,5*%
%TO.N,GND*%
X107950000Y-77851000D03*
%TO.P,J2,4*%
%TO.N,/PMOD2*%
X110490000Y-75311000D03*
%TO.P,J2,3*%
%TO.N,GND*%
X107950000Y-75311000D03*
%TO.P,J2,2*%
%TO.N,/PMOD3*%
X110490000Y-72771000D03*
%TO.P,J2,1*%
%TO.N,GND*%
X107950000Y-72771000D03*
%TD*%
%TO.P,J1,8*%
%TO.N,/PMOD0*%
X102870000Y-80391000D03*
%TO.P,J1,7*%
%TO.N,GND*%
X100330000Y-80391000D03*
%TO.P,J1,6*%
%TO.N,/PMOD1*%
X102870000Y-77851000D03*
%TO.P,J1,5*%
%TO.N,GND*%
X100330000Y-77851000D03*
%TO.P,J1,4*%
%TO.N,/PMOD2*%
X102870000Y-75311000D03*
%TO.P,J1,3*%
%TO.N,GND*%
X100330000Y-75311000D03*
%TO.P,J1,2*%
%TO.N,/PMOD3*%
X102870000Y-72771000D03*
%TO.P,J1,1*%
%TO.N,GND*%
X100330000Y-72771000D03*
%TD*%
D11*
%TO.N,GND*%
X120500000Y-62200000D03*
X123600000Y-62200000D03*
X114700000Y-70200000D03*
X117400000Y-70200000D03*
%TO.N,/PMOD4*%
X130900000Y-68600000D03*
%TO.N,/PMOD6*%
X130100000Y-67500000D03*
%TO.N,/PMOD5*%
X129500000Y-68700000D03*
%TD*%
D12*
%TO.N,/PMOD4*%
X135190000Y-76200000D02*
X135190000Y-77410000D01*
X135190000Y-77410000D02*
X134800000Y-77800000D01*
X134800000Y-77800000D02*
X131600000Y-77800000D01*
X131600000Y-77800000D02*
X131000000Y-77200000D01*
X131000000Y-77200000D02*
X131000000Y-68700000D01*
X131000000Y-68700000D02*
X130900000Y-68600000D01*
%TO.N,/PMOD6*%
X135190000Y-71120000D02*
X137600000Y-73530000D01*
X137600000Y-73530000D02*
X137600000Y-77600000D01*
X137600000Y-77600000D02*
X135800000Y-79400000D01*
X135800000Y-79400000D02*
X130800000Y-79400000D01*
X130800000Y-79400000D02*
X129400000Y-78000000D01*
X129400000Y-78000000D02*
X129400000Y-70100000D01*
X129400000Y-70100000D02*
X128400000Y-69100000D01*
X128400000Y-69100000D02*
X128400000Y-68200000D01*
X128400000Y-68200000D02*
X129100000Y-67500000D01*
X129100000Y-67500000D02*
X130100000Y-67500000D01*
%TO.N,/PMOD5*%
X135190000Y-73660000D02*
X136800000Y-75270000D01*
X136800000Y-75270000D02*
X136800000Y-77200000D01*
X136800000Y-77200000D02*
X135400000Y-78600000D01*
X135400000Y-78600000D02*
X131300000Y-78600000D01*
X131300000Y-78600000D02*
X130200000Y-77500000D01*
X130200000Y-77500000D02*
X130200000Y-69400000D01*
X130200000Y-69400000D02*
X129500000Y-68700000D01*
%TD*%
D13*
%TO.N,GND*%
G36*
X101540717Y-58598483D02*
G01*
X101427644Y-58871466D01*
X101370000Y-59161263D01*
X101370000Y-59456737D01*
X101427644Y-59746534D01*
X101540717Y-60019517D01*
X101704874Y-60265194D01*
X101913806Y-60474126D01*
X102070760Y-60579000D01*
X101913806Y-60683874D01*
X101704874Y-60892806D01*
X101540717Y-61138483D01*
X101427644Y-61411466D01*
X101370000Y-61701263D01*
X101370000Y-61996737D01*
X101427644Y-62286534D01*
X101540717Y-62559517D01*
X101704874Y-62805194D01*
X101913806Y-63014126D01*
X102070760Y-63119000D01*
X101913806Y-63223874D01*
X101704874Y-63432806D01*
X101540717Y-63678483D01*
X101427644Y-63951466D01*
X101370000Y-64241263D01*
X101370000Y-64536737D01*
X101427644Y-64826534D01*
X101540717Y-65099517D01*
X101704874Y-65345194D01*
X101913806Y-65554126D01*
X102070760Y-65659000D01*
X101913806Y-65763874D01*
X101704874Y-65972806D01*
X101540717Y-66218483D01*
X101427644Y-66491466D01*
X101370000Y-66781263D01*
X101370000Y-67076737D01*
X101427644Y-67366534D01*
X101540717Y-67639517D01*
X101704874Y-67885194D01*
X101913806Y-68094126D01*
X102159483Y-68258283D01*
X102432466Y-68371356D01*
X102722263Y-68429000D01*
X103017737Y-68429000D01*
X103307534Y-68371356D01*
X103580517Y-68258283D01*
X103826194Y-68094126D01*
X104035126Y-67885194D01*
X104199283Y-67639517D01*
X104312356Y-67366534D01*
X104370000Y-67076737D01*
X104370000Y-66781263D01*
X104312356Y-66491466D01*
X104199283Y-66218483D01*
X104035126Y-65972806D01*
X103826194Y-65763874D01*
X103669240Y-65659000D01*
X103826194Y-65554126D01*
X104035126Y-65345194D01*
X104199283Y-65099517D01*
X104312356Y-64826534D01*
X104370000Y-64536737D01*
X104370000Y-64241263D01*
X104312356Y-63951466D01*
X104199283Y-63678483D01*
X104035126Y-63432806D01*
X103826194Y-63223874D01*
X103669240Y-63119000D01*
X103826194Y-63014126D01*
X104035126Y-62805194D01*
X104199283Y-62559517D01*
X104312356Y-62286534D01*
X104370000Y-61996737D01*
X104370000Y-61701263D01*
X104312356Y-61411466D01*
X104199283Y-61138483D01*
X104035126Y-60892806D01*
X103826194Y-60683874D01*
X103669240Y-60579000D01*
X103826194Y-60474126D01*
X104035126Y-60265194D01*
X104199283Y-60019517D01*
X104312356Y-59746534D01*
X104370000Y-59456737D01*
X104370000Y-59161263D01*
X104312356Y-58871466D01*
X104199283Y-58598483D01*
X104183592Y-58575000D01*
X109176408Y-58575000D01*
X109160717Y-58598483D01*
X109047644Y-58871466D01*
X108990000Y-59161263D01*
X108990000Y-59456737D01*
X109047644Y-59746534D01*
X109160717Y-60019517D01*
X109324874Y-60265194D01*
X109533806Y-60474126D01*
X109690760Y-60579000D01*
X109533806Y-60683874D01*
X109324874Y-60892806D01*
X109160717Y-61138483D01*
X109047644Y-61411466D01*
X108990000Y-61701263D01*
X108990000Y-61996737D01*
X109047644Y-62286534D01*
X109160717Y-62559517D01*
X109324874Y-62805194D01*
X109533806Y-63014126D01*
X109690760Y-63119000D01*
X109533806Y-63223874D01*
X109324874Y-63432806D01*
X109160717Y-63678483D01*
X109047644Y-63951466D01*
X108990000Y-64241263D01*
X108990000Y-64536737D01*
X109047644Y-64826534D01*
X109160717Y-65099517D01*
X109324874Y-65345194D01*
X109533806Y-65554126D01*
X109690760Y-65659000D01*
X109533806Y-65763874D01*
X109324874Y-65972806D01*
X109160717Y-66218483D01*
X109047644Y-66491466D01*
X108990000Y-66781263D01*
X108990000Y-67076737D01*
X109047644Y-67366534D01*
X109160717Y-67639517D01*
X109324874Y-67885194D01*
X109533806Y-68094126D01*
X109779483Y-68258283D01*
X110052466Y-68371356D01*
X110342263Y-68429000D01*
X110637737Y-68429000D01*
X110927534Y-68371356D01*
X111200517Y-68258283D01*
X111287743Y-68200000D01*
X127646373Y-68200000D01*
X127650000Y-68236827D01*
X127650000Y-69063173D01*
X127646373Y-69100000D01*
X127650000Y-69136827D01*
X127650000Y-69136834D01*
X127660853Y-69247025D01*
X127703739Y-69388400D01*
X127773381Y-69518692D01*
X127867105Y-69632895D01*
X127895719Y-69656378D01*
X128650001Y-70410661D01*
X128650000Y-77963173D01*
X128646373Y-78000000D01*
X128650000Y-78036827D01*
X128650000Y-78036834D01*
X128660853Y-78147025D01*
X128703739Y-78288400D01*
X128773381Y-78418692D01*
X128867105Y-78532895D01*
X128895719Y-78556378D01*
X130243626Y-79904286D01*
X130267105Y-79932895D01*
X130381307Y-80026619D01*
X130511599Y-80096261D01*
X130652974Y-80139147D01*
X130763165Y-80150000D01*
X130763172Y-80150000D01*
X130800000Y-80153627D01*
X130836827Y-80150000D01*
X135763173Y-80150000D01*
X135800000Y-80153627D01*
X135836827Y-80150000D01*
X135836835Y-80150000D01*
X135947026Y-80139147D01*
X136088401Y-80096261D01*
X136218693Y-80026619D01*
X136332895Y-79932895D01*
X136356378Y-79904281D01*
X138104291Y-78156370D01*
X138132895Y-78132895D01*
X138156369Y-78104292D01*
X138156376Y-78104285D01*
X138226618Y-78018694D01*
X138234321Y-78004283D01*
X138296261Y-77888401D01*
X138339147Y-77747026D01*
X138350000Y-77636835D01*
X138350000Y-77636826D01*
X138353627Y-77600001D01*
X138350000Y-77563176D01*
X138350000Y-73566828D01*
X138353627Y-73530000D01*
X138350000Y-73493172D01*
X138350000Y-73493165D01*
X138339147Y-73382974D01*
X138296261Y-73241599D01*
X138226619Y-73111307D01*
X138132895Y-72997105D01*
X138104287Y-72973627D01*
X136641620Y-71510961D01*
X136690000Y-71267737D01*
X136690000Y-70972263D01*
X136632356Y-70682466D01*
X136519283Y-70409483D01*
X136355126Y-70163806D01*
X136146194Y-69954874D01*
X135989240Y-69850000D01*
X136146194Y-69745126D01*
X136355126Y-69536194D01*
X136519283Y-69290517D01*
X136632356Y-69017534D01*
X136690000Y-68727737D01*
X136690000Y-68432263D01*
X136632356Y-68142466D01*
X136519283Y-67869483D01*
X136355126Y-67623806D01*
X136146194Y-67414874D01*
X135900517Y-67250717D01*
X135627534Y-67137644D01*
X135337737Y-67080000D01*
X135042263Y-67080000D01*
X134752466Y-67137644D01*
X134479483Y-67250717D01*
X134233806Y-67414874D01*
X134024874Y-67623806D01*
X133920000Y-67780760D01*
X133815126Y-67623806D01*
X133606194Y-67414874D01*
X133360517Y-67250717D01*
X133087534Y-67137644D01*
X132797737Y-67080000D01*
X132502263Y-67080000D01*
X132212466Y-67137644D01*
X131939483Y-67250717D01*
X131693806Y-67414874D01*
X131484874Y-67623806D01*
X131381196Y-67778970D01*
X131349994Y-67758121D01*
X131177105Y-67686508D01*
X131037054Y-67658650D01*
X131050000Y-67593567D01*
X131050000Y-67406433D01*
X131013492Y-67222895D01*
X130941879Y-67050006D01*
X130837913Y-66894410D01*
X130705590Y-66762087D01*
X130549994Y-66658121D01*
X130377105Y-66586508D01*
X130193567Y-66550000D01*
X130006433Y-66550000D01*
X129822895Y-66586508D01*
X129650006Y-66658121D01*
X129512499Y-66750000D01*
X129136816Y-66750000D01*
X129099999Y-66746374D01*
X129063182Y-66750000D01*
X129063165Y-66750000D01*
X128952974Y-66760853D01*
X128811599Y-66803739D01*
X128681307Y-66873381D01*
X128681305Y-66873382D01*
X128681306Y-66873382D01*
X128595715Y-66943624D01*
X128595708Y-66943631D01*
X128567105Y-66967105D01*
X128543630Y-66995709D01*
X127895714Y-67643627D01*
X127867106Y-67667105D01*
X127843627Y-67695714D01*
X127843624Y-67695717D01*
X127816131Y-67729218D01*
X127773382Y-67781307D01*
X127738604Y-67846373D01*
X127703739Y-67911600D01*
X127660853Y-68052975D01*
X127656800Y-68094126D01*
X127650000Y-68163165D01*
X127650000Y-68163173D01*
X127646373Y-68200000D01*
X111287743Y-68200000D01*
X111446194Y-68094126D01*
X111655126Y-67885194D01*
X111819283Y-67639517D01*
X111932356Y-67366534D01*
X111990000Y-67076737D01*
X111990000Y-66781263D01*
X111932356Y-66491466D01*
X111819283Y-66218483D01*
X111655126Y-65972806D01*
X111446194Y-65763874D01*
X111289240Y-65659000D01*
X111446194Y-65554126D01*
X111655126Y-65345194D01*
X111819283Y-65099517D01*
X111932356Y-64826534D01*
X111990000Y-64536737D01*
X111990000Y-64241263D01*
X111932356Y-63951466D01*
X111819283Y-63678483D01*
X111655126Y-63432806D01*
X111574583Y-63352263D01*
X131150000Y-63352263D01*
X131150000Y-63647737D01*
X131207644Y-63937534D01*
X131320717Y-64210517D01*
X131484874Y-64456194D01*
X131693806Y-64665126D01*
X131939483Y-64829283D01*
X132212466Y-64942356D01*
X132502263Y-65000000D01*
X132797737Y-65000000D01*
X133087534Y-64942356D01*
X133360517Y-64829283D01*
X133606194Y-64665126D01*
X133815126Y-64456194D01*
X133920000Y-64299240D01*
X134024874Y-64456194D01*
X134233806Y-64665126D01*
X134479483Y-64829283D01*
X134752466Y-64942356D01*
X135042263Y-65000000D01*
X135337737Y-65000000D01*
X135627534Y-64942356D01*
X135900517Y-64829283D01*
X136146194Y-64665126D01*
X136355126Y-64456194D01*
X136519283Y-64210517D01*
X136632356Y-63937534D01*
X136690000Y-63647737D01*
X136690000Y-63352263D01*
X136632356Y-63062466D01*
X136519283Y-62789483D01*
X136355126Y-62543806D01*
X136146194Y-62334874D01*
X135900517Y-62170717D01*
X135627534Y-62057644D01*
X135337737Y-62000000D01*
X135042263Y-62000000D01*
X134752466Y-62057644D01*
X134479483Y-62170717D01*
X134233806Y-62334874D01*
X134024874Y-62543806D01*
X133920000Y-62700760D01*
X133815126Y-62543806D01*
X133606194Y-62334874D01*
X133360517Y-62170717D01*
X133087534Y-62057644D01*
X132797737Y-62000000D01*
X132502263Y-62000000D01*
X132212466Y-62057644D01*
X131939483Y-62170717D01*
X131693806Y-62334874D01*
X131484874Y-62543806D01*
X131320717Y-62789483D01*
X131207644Y-63062466D01*
X131150000Y-63352263D01*
X111574583Y-63352263D01*
X111446194Y-63223874D01*
X111289240Y-63119000D01*
X111446194Y-63014126D01*
X111655126Y-62805194D01*
X111819283Y-62559517D01*
X111932356Y-62286534D01*
X111990000Y-61996737D01*
X111990000Y-61701263D01*
X111932356Y-61411466D01*
X111819283Y-61138483D01*
X111655126Y-60892806D01*
X111446194Y-60683874D01*
X111289240Y-60579000D01*
X111446194Y-60474126D01*
X111655126Y-60265194D01*
X111819283Y-60019517D01*
X111932356Y-59746534D01*
X111990000Y-59456737D01*
X111990000Y-59161263D01*
X111932356Y-58871466D01*
X111819283Y-58598483D01*
X111803592Y-58575000D01*
X137971874Y-58575000D01*
X138082014Y-58585799D01*
X138160906Y-58609618D01*
X138233665Y-58648305D01*
X138297527Y-58700389D01*
X138350056Y-58763885D01*
X138389250Y-58836375D01*
X138413618Y-58915096D01*
X138425000Y-59023383D01*
X138425001Y-80971865D01*
X138414201Y-81082014D01*
X138390382Y-81160905D01*
X138351694Y-81233666D01*
X138299610Y-81297527D01*
X138236114Y-81350056D01*
X138163628Y-81389249D01*
X138084904Y-81413618D01*
X137976616Y-81425000D01*
X111577320Y-81425000D01*
X111655126Y-81347194D01*
X111819283Y-81101517D01*
X111932356Y-80828534D01*
X111990000Y-80538737D01*
X111990000Y-80243263D01*
X111932356Y-79953466D01*
X111819283Y-79680483D01*
X111655126Y-79434806D01*
X111446194Y-79225874D01*
X111289240Y-79121000D01*
X111446194Y-79016126D01*
X111655126Y-78807194D01*
X111819283Y-78561517D01*
X111932356Y-78288534D01*
X111990000Y-77998737D01*
X111990000Y-77703263D01*
X111932356Y-77413466D01*
X111819283Y-77140483D01*
X111655126Y-76894806D01*
X111446194Y-76685874D01*
X111289240Y-76581000D01*
X111446194Y-76476126D01*
X111655126Y-76267194D01*
X111819283Y-76021517D01*
X111932356Y-75748534D01*
X111990000Y-75458737D01*
X111990000Y-75163263D01*
X111932356Y-74873466D01*
X111819283Y-74600483D01*
X111655126Y-74354806D01*
X111446194Y-74145874D01*
X111289240Y-74041000D01*
X111446194Y-73936126D01*
X111655126Y-73727194D01*
X111819283Y-73481517D01*
X111932356Y-73208534D01*
X111990000Y-72918737D01*
X111990000Y-72623263D01*
X111932356Y-72333466D01*
X111819283Y-72060483D01*
X111655126Y-71814806D01*
X111446194Y-71605874D01*
X111200517Y-71441717D01*
X110927534Y-71328644D01*
X110637737Y-71271000D01*
X110342263Y-71271000D01*
X110052466Y-71328644D01*
X109779483Y-71441717D01*
X109533806Y-71605874D01*
X109324874Y-71814806D01*
X109160717Y-72060483D01*
X109047644Y-72333466D01*
X108990000Y-72623263D01*
X108990000Y-72918737D01*
X109047644Y-73208534D01*
X109160717Y-73481517D01*
X109324874Y-73727194D01*
X109533806Y-73936126D01*
X109690760Y-74041000D01*
X109533806Y-74145874D01*
X109324874Y-74354806D01*
X109160717Y-74600483D01*
X109047644Y-74873466D01*
X108990000Y-75163263D01*
X108990000Y-75458737D01*
X109047644Y-75748534D01*
X109160717Y-76021517D01*
X109324874Y-76267194D01*
X109533806Y-76476126D01*
X109690760Y-76581000D01*
X109533806Y-76685874D01*
X109324874Y-76894806D01*
X109160717Y-77140483D01*
X109047644Y-77413466D01*
X108990000Y-77703263D01*
X108990000Y-77998737D01*
X109047644Y-78288534D01*
X109160717Y-78561517D01*
X109324874Y-78807194D01*
X109533806Y-79016126D01*
X109690760Y-79121000D01*
X109533806Y-79225874D01*
X109324874Y-79434806D01*
X109160717Y-79680483D01*
X109047644Y-79953466D01*
X108990000Y-80243263D01*
X108990000Y-80538737D01*
X109047644Y-80828534D01*
X109160717Y-81101517D01*
X109324874Y-81347194D01*
X109402680Y-81425000D01*
X103957320Y-81425000D01*
X104035126Y-81347194D01*
X104199283Y-81101517D01*
X104312356Y-80828534D01*
X104370000Y-80538737D01*
X104370000Y-80243263D01*
X104312356Y-79953466D01*
X104199283Y-79680483D01*
X104035126Y-79434806D01*
X103826194Y-79225874D01*
X103669240Y-79121000D01*
X103826194Y-79016126D01*
X104035126Y-78807194D01*
X104199283Y-78561517D01*
X104312356Y-78288534D01*
X104370000Y-77998737D01*
X104370000Y-77703263D01*
X104312356Y-77413466D01*
X104199283Y-77140483D01*
X104035126Y-76894806D01*
X103826194Y-76685874D01*
X103669240Y-76581000D01*
X103826194Y-76476126D01*
X104035126Y-76267194D01*
X104199283Y-76021517D01*
X104312356Y-75748534D01*
X104370000Y-75458737D01*
X104370000Y-75163263D01*
X104312356Y-74873466D01*
X104199283Y-74600483D01*
X104035126Y-74354806D01*
X103826194Y-74145874D01*
X103669240Y-74041000D01*
X103826194Y-73936126D01*
X104035126Y-73727194D01*
X104199283Y-73481517D01*
X104312356Y-73208534D01*
X104370000Y-72918737D01*
X104370000Y-72623263D01*
X104312356Y-72333466D01*
X104199283Y-72060483D01*
X104035126Y-71814806D01*
X103826194Y-71605874D01*
X103580517Y-71441717D01*
X103307534Y-71328644D01*
X103017737Y-71271000D01*
X102722263Y-71271000D01*
X102432466Y-71328644D01*
X102159483Y-71441717D01*
X101913806Y-71605874D01*
X101704874Y-71814806D01*
X101540717Y-72060483D01*
X101427644Y-72333466D01*
X101370000Y-72623263D01*
X101370000Y-72918737D01*
X101427644Y-73208534D01*
X101540717Y-73481517D01*
X101704874Y-73727194D01*
X101913806Y-73936126D01*
X102070760Y-74041000D01*
X101913806Y-74145874D01*
X101704874Y-74354806D01*
X101540717Y-74600483D01*
X101427644Y-74873466D01*
X101370000Y-75163263D01*
X101370000Y-75458737D01*
X101427644Y-75748534D01*
X101540717Y-76021517D01*
X101704874Y-76267194D01*
X101913806Y-76476126D01*
X102070760Y-76581000D01*
X101913806Y-76685874D01*
X101704874Y-76894806D01*
X101540717Y-77140483D01*
X101427644Y-77413466D01*
X101370000Y-77703263D01*
X101370000Y-77998737D01*
X101427644Y-78288534D01*
X101540717Y-78561517D01*
X101704874Y-78807194D01*
X101913806Y-79016126D01*
X102070760Y-79121000D01*
X101913806Y-79225874D01*
X101704874Y-79434806D01*
X101540717Y-79680483D01*
X101427644Y-79953466D01*
X101370000Y-80243263D01*
X101370000Y-80538737D01*
X101427644Y-80828534D01*
X101540717Y-81101517D01*
X101704874Y-81347194D01*
X101782680Y-81425000D01*
X100028125Y-81425000D01*
X99917986Y-81414201D01*
X99839095Y-81390382D01*
X99766334Y-81351694D01*
X99702473Y-81299610D01*
X99649944Y-81236114D01*
X99610751Y-81163628D01*
X99586382Y-81084904D01*
X99575000Y-80976616D01*
X99575000Y-59028126D01*
X99585799Y-58917986D01*
X99609618Y-58839094D01*
X99648305Y-58766335D01*
X99700389Y-58702473D01*
X99763885Y-58649944D01*
X99836375Y-58610750D01*
X99915096Y-58586382D01*
X100023383Y-58575000D01*
X101556408Y-58575000D01*
X101540717Y-58598483D01*
G37*
X101540717Y-58598483D02*
X101427644Y-58871466D01*
X101370000Y-59161263D01*
X101370000Y-59456737D01*
X101427644Y-59746534D01*
X101540717Y-60019517D01*
X101704874Y-60265194D01*
X101913806Y-60474126D01*
X102070760Y-60579000D01*
X101913806Y-60683874D01*
X101704874Y-60892806D01*
X101540717Y-61138483D01*
X101427644Y-61411466D01*
X101370000Y-61701263D01*
X101370000Y-61996737D01*
X101427644Y-62286534D01*
X101540717Y-62559517D01*
X101704874Y-62805194D01*
X101913806Y-63014126D01*
X102070760Y-63119000D01*
X101913806Y-63223874D01*
X101704874Y-63432806D01*
X101540717Y-63678483D01*
X101427644Y-63951466D01*
X101370000Y-64241263D01*
X101370000Y-64536737D01*
X101427644Y-64826534D01*
X101540717Y-65099517D01*
X101704874Y-65345194D01*
X101913806Y-65554126D01*
X102070760Y-65659000D01*
X101913806Y-65763874D01*
X101704874Y-65972806D01*
X101540717Y-66218483D01*
X101427644Y-66491466D01*
X101370000Y-66781263D01*
X101370000Y-67076737D01*
X101427644Y-67366534D01*
X101540717Y-67639517D01*
X101704874Y-67885194D01*
X101913806Y-68094126D01*
X102159483Y-68258283D01*
X102432466Y-68371356D01*
X102722263Y-68429000D01*
X103017737Y-68429000D01*
X103307534Y-68371356D01*
X103580517Y-68258283D01*
X103826194Y-68094126D01*
X104035126Y-67885194D01*
X104199283Y-67639517D01*
X104312356Y-67366534D01*
X104370000Y-67076737D01*
X104370000Y-66781263D01*
X104312356Y-66491466D01*
X104199283Y-66218483D01*
X104035126Y-65972806D01*
X103826194Y-65763874D01*
X103669240Y-65659000D01*
X103826194Y-65554126D01*
X104035126Y-65345194D01*
X104199283Y-65099517D01*
X104312356Y-64826534D01*
X104370000Y-64536737D01*
X104370000Y-64241263D01*
X104312356Y-63951466D01*
X104199283Y-63678483D01*
X104035126Y-63432806D01*
X103826194Y-63223874D01*
X103669240Y-63119000D01*
X103826194Y-63014126D01*
X104035126Y-62805194D01*
X104199283Y-62559517D01*
X104312356Y-62286534D01*
X104370000Y-61996737D01*
X104370000Y-61701263D01*
X104312356Y-61411466D01*
X104199283Y-61138483D01*
X104035126Y-60892806D01*
X103826194Y-60683874D01*
X103669240Y-60579000D01*
X103826194Y-60474126D01*
X104035126Y-60265194D01*
X104199283Y-60019517D01*
X104312356Y-59746534D01*
X104370000Y-59456737D01*
X104370000Y-59161263D01*
X104312356Y-58871466D01*
X104199283Y-58598483D01*
X104183592Y-58575000D01*
X109176408Y-58575000D01*
X109160717Y-58598483D01*
X109047644Y-58871466D01*
X108990000Y-59161263D01*
X108990000Y-59456737D01*
X109047644Y-59746534D01*
X109160717Y-60019517D01*
X109324874Y-60265194D01*
X109533806Y-60474126D01*
X109690760Y-60579000D01*
X109533806Y-60683874D01*
X109324874Y-60892806D01*
X109160717Y-61138483D01*
X109047644Y-61411466D01*
X108990000Y-61701263D01*
X108990000Y-61996737D01*
X109047644Y-62286534D01*
X109160717Y-62559517D01*
X109324874Y-62805194D01*
X109533806Y-63014126D01*
X109690760Y-63119000D01*
X109533806Y-63223874D01*
X109324874Y-63432806D01*
X109160717Y-63678483D01*
X109047644Y-63951466D01*
X108990000Y-64241263D01*
X108990000Y-64536737D01*
X109047644Y-64826534D01*
X109160717Y-65099517D01*
X109324874Y-65345194D01*
X109533806Y-65554126D01*
X109690760Y-65659000D01*
X109533806Y-65763874D01*
X109324874Y-65972806D01*
X109160717Y-66218483D01*
X109047644Y-66491466D01*
X108990000Y-66781263D01*
X108990000Y-67076737D01*
X109047644Y-67366534D01*
X109160717Y-67639517D01*
X109324874Y-67885194D01*
X109533806Y-68094126D01*
X109779483Y-68258283D01*
X110052466Y-68371356D01*
X110342263Y-68429000D01*
X110637737Y-68429000D01*
X110927534Y-68371356D01*
X111200517Y-68258283D01*
X111287743Y-68200000D01*
X127646373Y-68200000D01*
X127650000Y-68236827D01*
X127650000Y-69063173D01*
X127646373Y-69100000D01*
X127650000Y-69136827D01*
X127650000Y-69136834D01*
X127660853Y-69247025D01*
X127703739Y-69388400D01*
X127773381Y-69518692D01*
X127867105Y-69632895D01*
X127895719Y-69656378D01*
X128650001Y-70410661D01*
X128650000Y-77963173D01*
X128646373Y-78000000D01*
X128650000Y-78036827D01*
X128650000Y-78036834D01*
X128660853Y-78147025D01*
X128703739Y-78288400D01*
X128773381Y-78418692D01*
X128867105Y-78532895D01*
X128895719Y-78556378D01*
X130243626Y-79904286D01*
X130267105Y-79932895D01*
X130381307Y-80026619D01*
X130511599Y-80096261D01*
X130652974Y-80139147D01*
X130763165Y-80150000D01*
X130763172Y-80150000D01*
X130800000Y-80153627D01*
X130836827Y-80150000D01*
X135763173Y-80150000D01*
X135800000Y-80153627D01*
X135836827Y-80150000D01*
X135836835Y-80150000D01*
X135947026Y-80139147D01*
X136088401Y-80096261D01*
X136218693Y-80026619D01*
X136332895Y-79932895D01*
X136356378Y-79904281D01*
X138104291Y-78156370D01*
X138132895Y-78132895D01*
X138156369Y-78104292D01*
X138156376Y-78104285D01*
X138226618Y-78018694D01*
X138234321Y-78004283D01*
X138296261Y-77888401D01*
X138339147Y-77747026D01*
X138350000Y-77636835D01*
X138350000Y-77636826D01*
X138353627Y-77600001D01*
X138350000Y-77563176D01*
X138350000Y-73566828D01*
X138353627Y-73530000D01*
X138350000Y-73493172D01*
X138350000Y-73493165D01*
X138339147Y-73382974D01*
X138296261Y-73241599D01*
X138226619Y-73111307D01*
X138132895Y-72997105D01*
X138104287Y-72973627D01*
X136641620Y-71510961D01*
X136690000Y-71267737D01*
X136690000Y-70972263D01*
X136632356Y-70682466D01*
X136519283Y-70409483D01*
X136355126Y-70163806D01*
X136146194Y-69954874D01*
X135989240Y-69850000D01*
X136146194Y-69745126D01*
X136355126Y-69536194D01*
X136519283Y-69290517D01*
X136632356Y-69017534D01*
X136690000Y-68727737D01*
X136690000Y-68432263D01*
X136632356Y-68142466D01*
X136519283Y-67869483D01*
X136355126Y-67623806D01*
X136146194Y-67414874D01*
X135900517Y-67250717D01*
X135627534Y-67137644D01*
X135337737Y-67080000D01*
X135042263Y-67080000D01*
X134752466Y-67137644D01*
X134479483Y-67250717D01*
X134233806Y-67414874D01*
X134024874Y-67623806D01*
X133920000Y-67780760D01*
X133815126Y-67623806D01*
X133606194Y-67414874D01*
X133360517Y-67250717D01*
X133087534Y-67137644D01*
X132797737Y-67080000D01*
X132502263Y-67080000D01*
X132212466Y-67137644D01*
X131939483Y-67250717D01*
X131693806Y-67414874D01*
X131484874Y-67623806D01*
X131381196Y-67778970D01*
X131349994Y-67758121D01*
X131177105Y-67686508D01*
X131037054Y-67658650D01*
X131050000Y-67593567D01*
X131050000Y-67406433D01*
X131013492Y-67222895D01*
X130941879Y-67050006D01*
X130837913Y-66894410D01*
X130705590Y-66762087D01*
X130549994Y-66658121D01*
X130377105Y-66586508D01*
X130193567Y-66550000D01*
X130006433Y-66550000D01*
X129822895Y-66586508D01*
X129650006Y-66658121D01*
X129512499Y-66750000D01*
X129136816Y-66750000D01*
X129099999Y-66746374D01*
X129063182Y-66750000D01*
X129063165Y-66750000D01*
X128952974Y-66760853D01*
X128811599Y-66803739D01*
X128681307Y-66873381D01*
X128681305Y-66873382D01*
X128681306Y-66873382D01*
X128595715Y-66943624D01*
X128595708Y-66943631D01*
X128567105Y-66967105D01*
X128543630Y-66995709D01*
X127895714Y-67643627D01*
X127867106Y-67667105D01*
X127843627Y-67695714D01*
X127843624Y-67695717D01*
X127816131Y-67729218D01*
X127773382Y-67781307D01*
X127738604Y-67846373D01*
X127703739Y-67911600D01*
X127660853Y-68052975D01*
X127656800Y-68094126D01*
X127650000Y-68163165D01*
X127650000Y-68163173D01*
X127646373Y-68200000D01*
X111287743Y-68200000D01*
X111446194Y-68094126D01*
X111655126Y-67885194D01*
X111819283Y-67639517D01*
X111932356Y-67366534D01*
X111990000Y-67076737D01*
X111990000Y-66781263D01*
X111932356Y-66491466D01*
X111819283Y-66218483D01*
X111655126Y-65972806D01*
X111446194Y-65763874D01*
X111289240Y-65659000D01*
X111446194Y-65554126D01*
X111655126Y-65345194D01*
X111819283Y-65099517D01*
X111932356Y-64826534D01*
X111990000Y-64536737D01*
X111990000Y-64241263D01*
X111932356Y-63951466D01*
X111819283Y-63678483D01*
X111655126Y-63432806D01*
X111574583Y-63352263D01*
X131150000Y-63352263D01*
X131150000Y-63647737D01*
X131207644Y-63937534D01*
X131320717Y-64210517D01*
X131484874Y-64456194D01*
X131693806Y-64665126D01*
X131939483Y-64829283D01*
X132212466Y-64942356D01*
X132502263Y-65000000D01*
X132797737Y-65000000D01*
X133087534Y-64942356D01*
X133360517Y-64829283D01*
X133606194Y-64665126D01*
X133815126Y-64456194D01*
X133920000Y-64299240D01*
X134024874Y-64456194D01*
X134233806Y-64665126D01*
X134479483Y-64829283D01*
X134752466Y-64942356D01*
X135042263Y-65000000D01*
X135337737Y-65000000D01*
X135627534Y-64942356D01*
X135900517Y-64829283D01*
X136146194Y-64665126D01*
X136355126Y-64456194D01*
X136519283Y-64210517D01*
X136632356Y-63937534D01*
X136690000Y-63647737D01*
X136690000Y-63352263D01*
X136632356Y-63062466D01*
X136519283Y-62789483D01*
X136355126Y-62543806D01*
X136146194Y-62334874D01*
X135900517Y-62170717D01*
X135627534Y-62057644D01*
X135337737Y-62000000D01*
X135042263Y-62000000D01*
X134752466Y-62057644D01*
X134479483Y-62170717D01*
X134233806Y-62334874D01*
X134024874Y-62543806D01*
X133920000Y-62700760D01*
X133815126Y-62543806D01*
X133606194Y-62334874D01*
X133360517Y-62170717D01*
X133087534Y-62057644D01*
X132797737Y-62000000D01*
X132502263Y-62000000D01*
X132212466Y-62057644D01*
X131939483Y-62170717D01*
X131693806Y-62334874D01*
X131484874Y-62543806D01*
X131320717Y-62789483D01*
X131207644Y-63062466D01*
X131150000Y-63352263D01*
X111574583Y-63352263D01*
X111446194Y-63223874D01*
X111289240Y-63119000D01*
X111446194Y-63014126D01*
X111655126Y-62805194D01*
X111819283Y-62559517D01*
X111932356Y-62286534D01*
X111990000Y-61996737D01*
X111990000Y-61701263D01*
X111932356Y-61411466D01*
X111819283Y-61138483D01*
X111655126Y-60892806D01*
X111446194Y-60683874D01*
X111289240Y-60579000D01*
X111446194Y-60474126D01*
X111655126Y-60265194D01*
X111819283Y-60019517D01*
X111932356Y-59746534D01*
X111990000Y-59456737D01*
X111990000Y-59161263D01*
X111932356Y-58871466D01*
X111819283Y-58598483D01*
X111803592Y-58575000D01*
X137971874Y-58575000D01*
X138082014Y-58585799D01*
X138160906Y-58609618D01*
X138233665Y-58648305D01*
X138297527Y-58700389D01*
X138350056Y-58763885D01*
X138389250Y-58836375D01*
X138413618Y-58915096D01*
X138425000Y-59023383D01*
X138425001Y-80971865D01*
X138414201Y-81082014D01*
X138390382Y-81160905D01*
X138351694Y-81233666D01*
X138299610Y-81297527D01*
X138236114Y-81350056D01*
X138163628Y-81389249D01*
X138084904Y-81413618D01*
X137976616Y-81425000D01*
X111577320Y-81425000D01*
X111655126Y-81347194D01*
X111819283Y-81101517D01*
X111932356Y-80828534D01*
X111990000Y-80538737D01*
X111990000Y-80243263D01*
X111932356Y-79953466D01*
X111819283Y-79680483D01*
X111655126Y-79434806D01*
X111446194Y-79225874D01*
X111289240Y-79121000D01*
X111446194Y-79016126D01*
X111655126Y-78807194D01*
X111819283Y-78561517D01*
X111932356Y-78288534D01*
X111990000Y-77998737D01*
X111990000Y-77703263D01*
X111932356Y-77413466D01*
X111819283Y-77140483D01*
X111655126Y-76894806D01*
X111446194Y-76685874D01*
X111289240Y-76581000D01*
X111446194Y-76476126D01*
X111655126Y-76267194D01*
X111819283Y-76021517D01*
X111932356Y-75748534D01*
X111990000Y-75458737D01*
X111990000Y-75163263D01*
X111932356Y-74873466D01*
X111819283Y-74600483D01*
X111655126Y-74354806D01*
X111446194Y-74145874D01*
X111289240Y-74041000D01*
X111446194Y-73936126D01*
X111655126Y-73727194D01*
X111819283Y-73481517D01*
X111932356Y-73208534D01*
X111990000Y-72918737D01*
X111990000Y-72623263D01*
X111932356Y-72333466D01*
X111819283Y-72060483D01*
X111655126Y-71814806D01*
X111446194Y-71605874D01*
X111200517Y-71441717D01*
X110927534Y-71328644D01*
X110637737Y-71271000D01*
X110342263Y-71271000D01*
X110052466Y-71328644D01*
X109779483Y-71441717D01*
X109533806Y-71605874D01*
X109324874Y-71814806D01*
X109160717Y-72060483D01*
X109047644Y-72333466D01*
X108990000Y-72623263D01*
X108990000Y-72918737D01*
X109047644Y-73208534D01*
X109160717Y-73481517D01*
X109324874Y-73727194D01*
X109533806Y-73936126D01*
X109690760Y-74041000D01*
X109533806Y-74145874D01*
X109324874Y-74354806D01*
X109160717Y-74600483D01*
X109047644Y-74873466D01*
X108990000Y-75163263D01*
X108990000Y-75458737D01*
X109047644Y-75748534D01*
X109160717Y-76021517D01*
X109324874Y-76267194D01*
X109533806Y-76476126D01*
X109690760Y-76581000D01*
X109533806Y-76685874D01*
X109324874Y-76894806D01*
X109160717Y-77140483D01*
X109047644Y-77413466D01*
X108990000Y-77703263D01*
X108990000Y-77998737D01*
X109047644Y-78288534D01*
X109160717Y-78561517D01*
X109324874Y-78807194D01*
X109533806Y-79016126D01*
X109690760Y-79121000D01*
X109533806Y-79225874D01*
X109324874Y-79434806D01*
X109160717Y-79680483D01*
X109047644Y-79953466D01*
X108990000Y-80243263D01*
X108990000Y-80538737D01*
X109047644Y-80828534D01*
X109160717Y-81101517D01*
X109324874Y-81347194D01*
X109402680Y-81425000D01*
X103957320Y-81425000D01*
X104035126Y-81347194D01*
X104199283Y-81101517D01*
X104312356Y-80828534D01*
X104370000Y-80538737D01*
X104370000Y-80243263D01*
X104312356Y-79953466D01*
X104199283Y-79680483D01*
X104035126Y-79434806D01*
X103826194Y-79225874D01*
X103669240Y-79121000D01*
X103826194Y-79016126D01*
X104035126Y-78807194D01*
X104199283Y-78561517D01*
X104312356Y-78288534D01*
X104370000Y-77998737D01*
X104370000Y-77703263D01*
X104312356Y-77413466D01*
X104199283Y-77140483D01*
X104035126Y-76894806D01*
X103826194Y-76685874D01*
X103669240Y-76581000D01*
X103826194Y-76476126D01*
X104035126Y-76267194D01*
X104199283Y-76021517D01*
X104312356Y-75748534D01*
X104370000Y-75458737D01*
X104370000Y-75163263D01*
X104312356Y-74873466D01*
X104199283Y-74600483D01*
X104035126Y-74354806D01*
X103826194Y-74145874D01*
X103669240Y-74041000D01*
X103826194Y-73936126D01*
X104035126Y-73727194D01*
X104199283Y-73481517D01*
X104312356Y-73208534D01*
X104370000Y-72918737D01*
X104370000Y-72623263D01*
X104312356Y-72333466D01*
X104199283Y-72060483D01*
X104035126Y-71814806D01*
X103826194Y-71605874D01*
X103580517Y-71441717D01*
X103307534Y-71328644D01*
X103017737Y-71271000D01*
X102722263Y-71271000D01*
X102432466Y-71328644D01*
X102159483Y-71441717D01*
X101913806Y-71605874D01*
X101704874Y-71814806D01*
X101540717Y-72060483D01*
X101427644Y-72333466D01*
X101370000Y-72623263D01*
X101370000Y-72918737D01*
X101427644Y-73208534D01*
X101540717Y-73481517D01*
X101704874Y-73727194D01*
X101913806Y-73936126D01*
X102070760Y-74041000D01*
X101913806Y-74145874D01*
X101704874Y-74354806D01*
X101540717Y-74600483D01*
X101427644Y-74873466D01*
X101370000Y-75163263D01*
X101370000Y-75458737D01*
X101427644Y-75748534D01*
X101540717Y-76021517D01*
X101704874Y-76267194D01*
X101913806Y-76476126D01*
X102070760Y-76581000D01*
X101913806Y-76685874D01*
X101704874Y-76894806D01*
X101540717Y-77140483D01*
X101427644Y-77413466D01*
X101370000Y-77703263D01*
X101370000Y-77998737D01*
X101427644Y-78288534D01*
X101540717Y-78561517D01*
X101704874Y-78807194D01*
X101913806Y-79016126D01*
X102070760Y-79121000D01*
X101913806Y-79225874D01*
X101704874Y-79434806D01*
X101540717Y-79680483D01*
X101427644Y-79953466D01*
X101370000Y-80243263D01*
X101370000Y-80538737D01*
X101427644Y-80828534D01*
X101540717Y-81101517D01*
X101704874Y-81347194D01*
X101782680Y-81425000D01*
X100028125Y-81425000D01*
X99917986Y-81414201D01*
X99839095Y-81390382D01*
X99766334Y-81351694D01*
X99702473Y-81299610D01*
X99649944Y-81236114D01*
X99610751Y-81163628D01*
X99586382Y-81084904D01*
X99575000Y-80976616D01*
X99575000Y-59028126D01*
X99585799Y-58917986D01*
X99609618Y-58839094D01*
X99648305Y-58766335D01*
X99700389Y-58702473D01*
X99763885Y-58649944D01*
X99836375Y-58610750D01*
X99915096Y-58586382D01*
X100023383Y-58575000D01*
X101556408Y-58575000D01*
X101540717Y-58598483D01*
%TD*%
M02*
