M48
; DRILL file {KiCad 5.1.6-c6e7f7d~86~ubuntu18.04.1} date Tue Jul 28 03:04:20 2020
; FORMAT={-:-/ absolute / inch / decimal}
; #@! TF.CreationDate,2020-07-28T03:04:20+01:00
; #@! TF.GenerationSoftware,Kicad,Pcbnew,5.1.6-c6e7f7d~86~ubuntu18.04.1
; #@! TF.FileFunction,Plated,1,2,PTH
FMAT,2
INCH
T1C0.0157
T2C0.0394
%
G90
G05
T1
X4.5157Y-2.7638
X4.622Y-2.7638
X4.7441Y-2.4488
X4.8661Y-2.4488
X5.0984Y-2.7047
X5.122Y-2.6575
X5.1535Y-2.7008
T2
X4.25Y-2.335
X4.25Y-2.435
X4.25Y-2.535
X4.25Y-2.635
X4.35Y-2.335
X4.35Y-2.435
X4.35Y-2.535
X4.35Y-2.635
X3.95Y-2.335
X3.95Y-2.435
X3.95Y-2.535
X3.95Y-2.635
X4.05Y-2.335
X4.05Y-2.435
X4.05Y-2.535
X4.05Y-2.635
X4.25Y-2.865
X4.25Y-2.965
X4.25Y-3.065
X4.25Y-3.165
X4.35Y-2.865
X4.35Y-2.965
X4.35Y-3.065
X4.35Y-3.165
X5.2224Y-2.5
X5.2224Y-2.6
X5.2224Y-2.7
X5.2224Y-2.8
X5.2224Y-2.9
X5.2224Y-3.0
X5.3224Y-2.5
X5.3224Y-2.6
X5.3224Y-2.7
X5.3224Y-2.8
X5.3224Y-2.9
X5.3224Y-3.0
X3.95Y-2.865
X3.95Y-2.965
X3.95Y-3.065
X3.95Y-3.165
X4.05Y-2.865
X4.05Y-2.965
X4.05Y-3.065
X4.05Y-3.165
T0
M30
